<svg fill="none" height="61" viewBox="0 0 60 61" width="60" xmlns="http://www.w3.org/2000/svg"><path d="m18.9501 30c0-7.7791 4.6194-14.4943 11.3021-17.6225-2.5691-1.2039-5.4433-1.8775-8.4771-1.8775-10.9215 0-19.7751 8.7305-19.7751 19.5 0 10.7696 8.8536 19.5 19.7751 19.5 3.0338 0 5.908-.6736 8.4759-1.8762-6.6815-3.1294-11.3009-9.8447-11.3009-17.6238zm0 0c0-10.7695 8.8536-19.5 19.7751-19.5h2.8251l5.65 5.5714v5.5715l5.65 2.7857v8.3571l4.1497 4.6783c-1.6467 3.0189-3.0773 5.1271-4.2918 6.3244-3.5784 3.529-8.5222 5.7116-13.983 5.7116-10.9215 0-19.7751-8.7304-19.7751-19.5zm16.9501-5.5714c1.5603 0 2.825-1.2472 2.825-2.7857s-1.2647-2.7858-2.825-2.7858c-1.5602 0-2.825 1.2473-2.825 2.7858s1.2648 2.7857 2.825 2.7857zm-5.65 13.9285c1.5602 0 2.825-1.2471 2.825-2.7857 0-1.5385-1.2648-2.7857-2.825-2.7857-1.5603 0-2.825 1.2472-2.825 2.7857 0 1.5386 1.2647 2.7857 2.825 2.7857zm14.1251 0c1.5602 0 2.825-1.2471 2.825-2.7857 0-1.5385-1.2648-2.7857-2.825-2.7857-1.5603 0-2.825 1.2472-2.825 2.7857 0 1.5386 1.2647 2.7857 2.825 2.7857z" stroke="#fa8305" stroke-linejoin="round" stroke-width="2.5"/></svg>