<svg width="131" height="40" viewBox="0 0 131 40" fill="none" xmlns="http://www.w3.org/2000/svg">
<path d="M39.0834 16.6665H39.9167V16.7498H40.1667H40.3334H40.4167V16.8332H40.5834H40.6667V16.9165H40.8334V16.9998H40.9167H41H41.0834V17.0832H41.1667V17.1665H41.25V17.2498H41.3334H41.4167V17.3332V17.4165H41.5H41.5834V17.4998H41.6667V17.5832V17.6665H41.75V17.7498H41.8334V17.8332V17.9165H41.9167V17.9998V18.0832H42V17.9998H42.0834V17.9165H42.1667V17.8332H42.25V17.7498H42.3334V17.6665H42.4167H42.5V17.5832H42.5834V17.4998H42.6667V17.4165H42.75H42.8334V17.3332H42.9167V17.2498H43H43.0834V17.1665H43.1667V17.0832H43.25H43.3334V16.9998H43.4167H43.5H43.5834V16.9165H43.6667H43.75V16.8332H43.8334H43.9167H44V16.7498H44.1667H44.25H44.5V16.6665H45.3334V16.7498H45.5834H45.75H45.8334V16.8332H46H46.0834H46.1667V16.9165H46.25V16.9998H46.3334H46.4167H46.5V17.0832H46.5834V17.1665H46.6667V17.2498H46.75H46.8334V17.3332H46.9167V17.4165H47V17.4998H47.0834V17.5832V17.6665H47.1667V17.7498H47.25V17.8332V17.9165H47.3334V17.9998H47.4167V18.0832V18.1665V18.2498H47.5V18.3332V18.4165V18.4998H47.5834V18.6665V18.7498H47.6667V18.9998V26.4165H45.6667V19.4998V19.3332H45.5834V19.2498V19.1665H45.5V19.0832V18.9998H45.4167V18.9165V18.8332H45.3334V18.7498H45.25V18.6665H45.1667H45.0834V18.5832H45V18.4998H44.9167H44.8334H44.6667V18.4165H44.5H44.0834H43.9167V18.4998H43.75H43.6667H43.5834V18.5832H43.5H43.4167V18.6665H43.3334H43.25H43.1667V18.7498H43.0834H43V18.8332H42.9167V18.9165H42.8334H42.75V18.9998H42.6667V19.0832H42.5834V19.1665H42.5H42.4167V19.2498V19.3332H42.3334H42.25V19.4165V26.4165H40.25V19.4998H40.1667V19.3332V19.2498V19.1665H40.0834V19.0832V18.9998H40V18.9165H39.9167V18.8332V18.7498H39.8334V18.6665H39.75H39.6667V18.5832H39.5834V18.4998H39.5H39.4167H39.25V18.4165H39.0834H38.6667H38.4167V18.4998H38.3334H38.1667H38.0834V18.5832H37.9167V18.6665H37.8334H37.75V18.7498H37.6667H37.5834V18.8332H37.5V18.9165H37.4167H37.3334V18.9998H37.25H37.1667V19.0832H37.0834V19.1665H37V19.2498H36.9167V19.3332H36.8334V19.4165V26.4165H34.8334V16.9165H36.6667V17.9165H36.75V17.8332H36.8334V17.7498H36.9167V17.6665H37H37.0834V17.5832V17.4998H37.1667H37.25V17.4165H37.3334V17.3332H37.4167V17.2498H37.5H37.5834V17.1665H37.6667H37.75V17.0832H37.8334H37.9167V16.9998H38H38.0834V16.9165H38.1667H38.3334V16.8332H38.4167H38.5H38.5834V16.7498H38.6667H38.8334H39.0834V16.6665Z" fill="white"/>
<path d="M18.6667 12.9165H19.6667H20H20.1667V12.9998H20.4167H20.5H20.6667V13.0832H20.75H20.8334V13.1665H20.9167H21H21.1667V13.2498H21.25H21.3334V13.3332H21.4167H21.5V13.4165H21.5834H21.6667V13.4998H21.75V13.5832H21.8334H21.9167V13.6665H22V13.7498H22.0834V13.8332H22.1667H22.25V13.9165H22.3334V13.9998H22.4167V14.0832H22.5V14.1665H22.5834V14.2498H22.6667V14.3332H22.75V14.4165V14.4998H22.8334V14.5832H22.9167V14.6665V14.7498H23V14.8332V14.9165H23.0834V14.9998H23.1667V15.0832V15.1665H23.25V15.2498V15.3332V15.4165H23.3334V15.4998V15.5832H23.4167V15.6665V15.7498V15.8332H23.5V15.9998V16.0832V16.2498H23.5834V16.3332V16.4998H23.6667V16.6665V16.8332V16.9165H23.5834H23.4167V16.9998H23.25H23.1667H23V17.0832H22.8334H22.75H22.5834V17.1665H22.4167H22.25V17.2498H22.1667H22H21.8334V17.3332H21.75V17.2498H21.6667V17.0832V16.9165V16.7498H21.5834V16.6665V16.5832H21.5V16.4998V16.3332V16.2498H21.4167V16.0832H21.3334V15.9998V15.9165H21.25V15.8332V15.7498H21.1667V15.6665V15.5832H21.0834V15.4998H21V15.4165H20.9167V15.3332H20.8334V15.2498H20.75V15.1665H20.6667V15.0832H20.5834H20.5V14.9998H20.4167V14.9165H20.3334H20.25V14.8332H20.1667H20V14.7498H19.9167H19.8334V14.6665H19.6667H19.5H18.8334H18.6667H18.5V14.7498H18.4167H18.25V14.8332H18.1667H18.0834H18V14.9165H17.9167H17.8334V14.9998H17.75V15.0832H17.6667V15.1665H17.5834H17.5V15.2498H17.4167V15.3332H17.3334V15.4165H17.25V15.4998H17.1667V15.5832H17.0834V15.6665V15.7498H17V15.8332H16.9167V15.9165V15.9998H16.8334V16.0832H16.75V16.1665V16.2498H16.6667V16.3332V16.4165H16.5834V16.4998V16.5832V16.6665H16.5V16.7498V16.8332H16.4167V16.9998V17.0832H16.3334V17.1665V17.2498V17.4165H16.25V17.4998V17.6665H16.1667V17.8332V17.9998V18.1665H16.0834V18.4165V18.7498V19.1665H16V20.6665H16.0834V21.0832V21.3332V21.5832H16.1667V21.7498V21.9165V22.0832H16.25V22.2498V22.3332H16.3334V22.4998V22.5832V22.6665H16.4167V22.7498V22.8332V22.9165H16.5V22.9998V23.0832H16.5834V23.1665V23.2498H16.6667V23.3332V23.4165V23.4998H16.75V23.5832H16.8334V23.6665V23.7498H16.9167V23.8332H17V23.9165H17.0834V23.9998V24.0832H17.1667V24.1665H17.25V24.2498H17.3334H17.4167V24.3332V24.4165H17.5H17.5834V24.4998H17.6667H17.75V24.5832H17.8334V24.6665H17.9167H18V24.7498H18.1667H18.25V24.8332H18.3334H18.4167H18.6667V24.9165H19.4167V24.8332H19.6667H19.75H19.9167V24.7498H20H20.0834V24.6665H20.1667H20.25H20.3334V24.5832H20.4167V24.4998H20.5H20.5834V24.4165H20.6667H20.75V24.3332H20.8334V24.2498H20.9167V24.1665H21V24.0832H21.0834V23.9998H21.1667V23.9165H21.25V23.8332V23.7498H21.3334V23.6665H21.4167V23.5832V23.4998V23.4165H21.5V23.2498V23.1665H21.5834V23.0832V22.9998H21.6667V22.9165V22.7498V22.4998H21.75V22.1665V21.4998H19V19.8332H23.6667V26.4165H22V25.9165H21.9167V25.4998V25.0832V24.9165H21.8334V24.9998H21.75V25.0832V25.1665H21.6667V25.2498V25.3332H21.5834V25.4165H21.5V25.4998H21.4167V25.5832V25.6665H21.3334H21.25V25.7498H21.1667V25.8332H21.0834V25.9165H21V25.9998H20.9167V26.0832H20.8334H20.75V26.1665H20.6667H20.5834V26.2498H20.5H20.4167V26.3332H20.3334H20.25V26.4165H20.1667H20.0834H20V26.4998H19.8334H19.75V26.5832H19.5834H19.4167H19.1667V26.6665H18.0834V26.5832H17.8334H17.6667H17.5V26.4998H17.4167H17.25V26.4165H17.1667H17.0834H17V26.3332H16.9167H16.8334H16.75V26.2498H16.6667V26.1665H16.5834H16.5H16.4167V26.0832H16.3334V25.9998H16.25H16.1667V25.9165H16.0834V25.8332H16H15.9167V25.7498H15.8334V25.6665H15.75V25.5832H15.6667V25.4998H15.5834V25.4165H15.5V25.3332H15.4167V25.2498H15.3334V25.1665H15.25V25.0832H15.1667V24.9998V24.9165H15.0834V24.8332H15V24.7498V24.6665H14.9167V24.5832V24.4998H14.8334V24.4165H14.75V24.3332V24.2498H14.6667V24.1665V24.0832H14.5834V23.9998V23.9165V23.8332H14.5V23.7498H14.4167V23.6665V23.4998H14.3334V23.4165V23.2498V23.1665H14.25V23.0832V22.9998H14.1667V22.8332V22.7498V22.5832H14.0834V22.4165V22.2498V22.0832H14V21.9165V21.7498H13.9167V21.4998V21.0832V20.5832H13.8334V19.4165H13.9167V18.9165V18.4998V18.2498H14V17.9998V17.8332H14.0834V17.6665V17.4998V17.3332H14.1667V17.2498V17.0832V16.9998H14.25V16.8332V16.7498H14.3334V16.6665V16.4998V16.4165H14.4167V16.3332V16.2498V16.1665H14.5V16.0832V15.9998H14.5834V15.8332H14.6667V15.7498V15.6665V15.5832H14.75V15.4998H14.8334V15.4165V15.3332H14.9167V15.2498V15.1665H15V15.0832H15.0834V14.9998V14.9165H15.1667V14.8332V14.7498H15.25V14.6665H15.3334V14.5832H15.4167V14.4998V14.4165H15.5H15.5834V14.3332H15.6667V14.2498V14.1665H15.75H15.8334V14.0832H15.9167V13.9998V13.9165H16H16.0834V13.8332H16.1667V13.7498H16.25H16.3334V13.6665H16.4167V13.5832H16.5H16.5834V13.4998H16.6667V13.4165H16.75H16.8334H16.9167V13.3332H17V13.2498H17.0834H17.1667H17.25V13.1665H17.3334H17.4167H17.5V13.0832H17.5834H17.75V12.9998H17.8334H18H18.1667V12.9165H18.4167H18.6667Z" fill="white"/>
<path d="M82.1666 16.9165H84.1666V17.0832H84.25V17.2498V17.3332V17.4998H84.3333V17.6665V17.7498V17.9165H84.4166V17.9998V18.1665H84.5V18.3332V18.4165V18.5832H84.5833V18.7498V18.8332V18.9998H84.6666V19.1665V19.2498H84.75V19.4165V19.5832V19.6665H84.8333V19.8332V19.9165V20.0832H84.9166V20.1665V20.3332H85V20.4998V20.6665V20.7498H85.0833V20.9165V21.0832V21.1665H85.1666V21.3332V21.4998H85.25V21.5832V21.7498V21.8332H85.3333V21.9998V22.0832V22.2498H85.4166V22.4165V22.5832H85.5V22.6665V22.8332V22.9998H85.5833V23.0832V23.2498V23.4165H85.6666V23.4998V23.5832H85.75V23.4998V23.3332V23.2498H85.8333V23.0832V22.9998V22.8332H85.9166V22.7498V22.5832H86V22.4998V22.3332V22.2498H86.0833V22.0832V21.9998V21.8332H86.1666V21.7498V21.5832H86.25V21.4998V21.3332V21.2498H86.3333V21.1665V20.9998V20.9165H86.4166V20.7498V20.6665H86.5V20.4998V20.4165V20.2498H86.5833V20.1665V19.9998V19.9165H86.6666V19.7498V19.6665H86.75V19.5832V19.4165V19.3332H86.8333V19.1665V18.9998V18.9165H86.9166V18.7498V18.6665H87V18.4998V18.4165V18.2498H87.0833V18.1665V17.9998V17.9165H87.1666V17.8332V17.6665V17.5832H87.25V17.4165V17.3332H87.3333V17.1665V17.0832V16.9165H87.4166H89.25V16.9998H89.3333V17.0832V17.2498V17.3332H89.4166V17.4998V17.5832V17.7498H89.5V17.8332V17.9998H89.5833V18.0832V18.2498V18.3332H89.6666V18.4998V18.5832V18.7498H89.75V18.8332V18.9998H89.8333V19.0832V19.2498V19.3332H89.9166V19.4998V19.5832V19.7498H90V19.8332V19.9998H90.0833V20.0832V20.2498V20.3332H90.1666V20.4998V20.5832V20.7498H90.25V20.8332V20.9998H90.3333V21.0832V21.2498V21.3332H90.4166V21.4998V21.5832V21.7498H90.5V21.8332V21.9998H90.5833V22.0832V22.2498V22.3332H90.6666V22.4998V22.6665V22.7498H90.75V22.9165V22.9998H90.8333V23.1665V23.2498V23.4165H90.9166V23.4998V23.5832V23.4165H91V23.3332V23.1665H91.0833V23.0832V22.9165V22.7498H91.1666V22.6665V22.4998V22.4165H91.25V22.2498V22.0832H91.3333V21.9998V21.8332V21.7498H91.4166V21.5832V21.4998V21.3332H91.5V21.2498V21.0832H91.5833V20.9998V20.8332V20.6665H91.6666V20.5832V20.4165V20.3332H91.75V20.1665V19.9998H91.8333V19.9165V19.7498V19.6665H91.9166V19.4998V19.3332V19.2498H92V19.0832V18.9998H92.0833V18.8332V18.6665V18.5832H92.1666V18.4165V18.3332V18.1665H92.25V17.9998V17.9165H92.3333V17.7498V17.6665V17.4998H92.4166V17.4165V17.2498V17.0832H92.5V16.9998V16.9165H94.3333V17.0832V17.1665H94.25V17.3332V17.4165H94.1666V17.5832V17.6665V17.7498H94.0833V17.9165V17.9998V18.1665H94V18.2498V18.4165H93.9166V18.4998V18.6665V18.7498H93.8333V18.9165V18.9998V19.1665H93.75V19.2498V19.4165H93.6666V19.4998V19.5832V19.7498H93.5833V19.8332V19.9998V20.0832H93.5V20.2498V20.3332H93.4166V20.4998V20.5832V20.6665H93.3333V20.8332V20.9998V21.0832H93.25V21.2498V21.3332H93.1666V21.4998V21.5832V21.6665H93.0833V21.8332V21.9165V22.0832H93V22.1665V22.3332H92.9166V22.4165V22.4998V22.6665H92.8333V22.7498V22.9165V22.9998H92.75V23.1665V23.2498H92.6666V23.4165V23.4998V23.6665H92.5833V23.7498V23.9165V23.9998H92.5V24.1665V24.2498H92.4166V24.4165V24.4998V24.5832H92.3333V24.7498V24.8332V24.9998H92.25V25.0832V25.2498H92.1666V25.3332V25.4165V25.5832H92.0833V25.6665V25.8332V25.9165H92V26.0832V26.1665H91.9166V26.3332V26.4165H89.9166V26.3332V26.1665H89.8333V26.0832V25.9165V25.8332H89.75V25.6665V25.5832H89.6666V25.4165V25.3332V25.1665H89.5833V25.0832V24.9165V24.8332H89.5V24.6665V24.5832H89.4166V24.4165V24.3332V24.1665H89.3333V24.0832V23.9998V23.8332H89.25V23.7498V23.5832H89.1666V23.4998V23.3332V23.2498H89.0833V23.0832V22.9998V22.8332H89V22.7498V22.5832H88.9166V22.4998V22.3332V22.2498H88.8333V22.0832V21.9998V21.8332H88.75V21.7498V21.5832H88.6666V21.4998V21.3332V21.2498H88.5833V21.0832V20.9998V20.8332H88.5V20.7498V20.5832H88.4166V20.4998V20.3332V20.2498H88.3333V20.0832V19.9998V19.8332H88.25H88.1666V19.9998V20.0832V20.2498H88.0833V20.3332V20.4165V20.5832H88V20.6665V20.8332H87.9166V20.9998V21.0832V21.2498H87.8333V21.3332V21.4998V21.5832H87.75V21.7498V21.8332H87.6666V21.9165V22.0832V22.1665H87.5833V22.3332V22.4165V22.5832H87.5V22.6665V22.8332H87.4166V22.9165V23.0832V23.1665H87.3333V23.2498V23.4165V23.4998H87.25V23.6665V23.7498H87.1666V23.9165V23.9998V24.1665H87.0833V24.2498V24.4165V24.4998H87V24.6665V24.7498V24.9165H86.9166V24.9998V25.1665H86.8333V25.2498V25.4165V25.4998H86.75V25.6665V25.7498V25.9165H86.6666V25.9998V26.0832H86.5833V26.2498V26.3332V26.4165H84.5833V26.3332V26.1665H84.5V26.0832V25.9165V25.8332H84.4166V25.6665V25.5832H84.3333V25.4998V25.3332V25.2498H84.25V25.0832V24.9998V24.8332H84.1666V24.7498V24.5832H84.0833V24.4998V24.4165V24.2498H84V24.1665V23.9998V23.9165H83.9166V23.7498V23.6665H83.8333V23.4998V23.4165V23.2498H83.75V23.1665V22.9998V22.9165H83.6666V22.7498V22.6665H83.5833V22.5832V22.4165V22.3332H83.5V22.1665V22.0832V21.9165H83.4166V21.8332V21.6665H83.3333V21.5832V21.4998V21.3332H83.25V21.2498V21.0832V20.9998H83.1666V20.8332V20.6665H83.0833V20.5832V20.4998V20.3332H83V20.2498V20.0832V19.9998H82.9166V19.8332V19.7498H82.8333V19.6665V19.4998V19.4165H82.75V19.2498V19.1665V18.9998H82.6666V18.9165V18.7498H82.5833V18.6665V18.4998V18.4165H82.5V18.2498V18.1665V17.9998H82.4166V17.9165V17.7498H82.3333V17.6665V17.5832V17.4165H82.25V17.3332V17.1665V17.0832H82.1666V16.9165Z" fill="white"/>
<path fill-rule="evenodd" clip-rule="evenodd" d="M76.0834 13.0835H79V13.2502V13.3335V13.4168H79.0834V13.5835V13.6668V13.7502H79.1667V13.9168V14.0002H79.25V14.0835V14.1668V14.3335H79.3334V14.4168V14.5835V14.6668H79.4167V14.7502V14.9168H79.5V15.0002V15.0835V15.1668H79.5834V15.3335V15.4168V15.5835H79.6667V15.6668V15.7502H79.75V15.8335V16.0002V16.0835H79.8334V16.2502V16.3335V16.4168H79.9167V16.5835V16.6668H80V16.7502V16.8335V17.0002H80.0834V17.0835V17.2502V17.3335H80.1667V17.4168V17.5002H80.25V17.6668V17.7502V17.9168H80.3334V18.0002V18.0835V18.2502H80.4167V18.3335V18.4168H80.5V18.5002V18.6668V18.7502H80.5834V18.9168V19.0002V19.0835H80.6667V19.2502V19.3335H80.75V19.4168V19.5835V19.6668H80.8334V19.7502V19.9168V20.0002H80.9167V20.0835V20.1668H81V20.3335V20.4168V20.5835H81.0834V20.6668V20.7502V20.9168H81.1667V21.0002V21.0835H81.25V21.2502V21.3335V21.4168H81.3334V21.5835V21.6668V21.7502H81.4167V21.8335V22.0002H81.5V22.0835V22.2502V22.3335H81.5834V22.4168V22.5835V22.6668H81.6667V22.7502V22.9168H81.75V23.0002V23.0835V23.2502H81.8334V23.3335V23.4168V23.5002H81.9167V23.6668V23.7502H82V23.9168V24.0002V24.0835H82.0834V24.2502V24.3335V24.4168H82.1667V24.5002V24.6668H82.25V24.7502V24.9168V25.0002H82.3334V25.0835V25.1668V25.3335H82.4167V25.4168V25.5835H82.5V25.6668V25.7502V25.9168H82.5834V26.0002V26.0835V26.1668H82.6667V26.3335V26.4168H80.5834V26.3335H80.5V26.2502V26.0835V26.0002H80.4167V25.9168V25.7502H80.3334V25.6668V25.5835V25.4168H80.25V25.3335V25.1668V25.0835H80.1667V24.9168V24.8335H80.0834V24.6668V24.5835V24.5002H80V24.3335V24.2502V24.1668H79.9167V24.0002V23.9168H79.8334V23.7502V23.6668V23.5002H79.75V23.4168V23.2502V23.1668H79.6667V23.0835V22.9168H75.25V23.0002V23.1668V23.2502H75.1667V23.4168V23.5002V23.6668H75.0834V23.7502V23.8335H75V24.0002V24.0835V24.2502H74.9167V24.3335V24.4168V24.5835H74.8334V24.6668V24.8335H74.75V24.9168V25.0835V25.1668H74.6667V25.2502V25.4168V25.5002H74.5834V25.6668V25.7502H74.5V25.8335V26.0002V26.0835H74.4167V26.1668V26.3335V26.4168H72.3334V26.3335H72.4167V26.2502V26.1668V26.0835H72.5V25.9168V25.8335V25.6668H72.5834V25.5835V25.5002H72.6667V25.3335V25.2502V25.1668H72.75V25.0835V24.9168V24.8335H72.8334V24.6668V24.5835H72.9167V24.5002V24.3335V24.2502H73V24.1668V24.0002V23.9168H73.0834V23.8335V23.6668H73.1667V23.5835V23.5002V23.3335H73.25V23.2502V23.1668V23.0002H73.3334V22.9168V22.8335H73.4167V22.6668V22.5835V22.5002H73.5V22.3335V22.2502V22.0835H73.5834V22.0002V21.9168H73.6667V21.8335V21.6668V21.5835H73.75V21.5002V21.3335V21.2502H73.8334V21.0835V21.0002H73.9167V20.9168V20.8335V20.6668H74V20.5835V20.4168V20.3335H74.0834V20.2502V20.0835H74.1667V20.0002V19.9168V19.8335H74.25V19.6668V19.5835V19.4168H74.3334V19.3335V19.2502H74.4167V19.0835V19.0002V18.9168H74.5V18.7502V18.6668V18.5835H74.5834V18.4168V18.3335H74.6667V18.2502V18.0835V18.0002H74.75V17.9168V17.7502V17.6668H74.8334V17.5835V17.4168H74.9167V17.3335V17.2502V17.0835H75V17.0002V16.8335V16.7502H75.0834V16.6668V16.5835H75.1667V16.4168V16.3335V16.2502H75.25V16.0835V16.0002V15.8335H75.3334V15.7502V15.6668H75.4167V15.5835V15.4168V15.3335H75.5V15.1668V15.0835V15.0002H75.5834V14.8335V14.7502H75.6667V14.6668V14.5835V14.4168H75.75V14.3335V14.1668V14.0835H75.8334V14.0002V13.8335H75.9167V13.7502V13.6668V13.5835H76V13.4168V13.3335V13.1668H76.0834V13.0835ZM77.4167 14.9168V15.0002V15.0835V15.2502H77.3334V15.3335V15.5002H77.25V15.5835V15.7502V15.8335H77.1667V15.9168V16.0835V16.1668H77.0834V16.2502V16.4168H77V16.5002V16.6668V16.7502H76.9167V16.9168V17.0002V17.1668H76.8334V17.2502V17.3335H76.75V17.5002V17.5835V17.6668H76.6667V17.8335V17.9168V18.0835H76.5834V18.1668V18.3335H76.5V18.4168V18.5002V18.6668H76.4167V18.7502V18.9168V19.0002H76.3334V19.0835V19.2502H76.25V19.3335V19.5002V19.5835H76.1667V19.7502V19.8335V19.9168H76.0834V20.0835V20.1668H76V20.2502V20.4168V20.5002H75.9167V20.6668V20.7502V20.9168H75.8334V21.0002V21.1668H75.75V21.2502H79.1667V21.1668H79.0834V21.0002V20.9168V20.7502H79V20.6668V20.5835V20.4168H78.9167V20.3335V20.2502H78.8334V20.0835V20.0002V19.8335H78.75V19.7502V19.5835V19.5002H78.6667V19.3335V19.2502H78.5834V19.1668V19.0002V18.9168H78.5V18.8335V18.6668V18.5835H78.4167V18.4168V18.3335V18.1668H78.3334V18.0835V17.9168H78.25V17.8335V17.7502V17.5835H78.1667V17.5002V17.4168V17.2502H78.0834V17.1668V17.0002H78V16.9168V16.7502V16.6668H77.9167V16.5835V16.4168V16.3335H77.8334V16.1668V16.0835H77.75V16.0002V15.8335V15.7502H77.6667V15.6668V15.5002V15.4168H77.5834V15.2502V15.1668H77.5V15.0002V14.9168H77.4167Z" fill="white"/>
<path fill-rule="evenodd" clip-rule="evenodd" d="M49.8334 13.0835H51.8334V17.6668V17.5835H51.9167V17.5002H52V17.4168H52.0834V17.3335H52.1667V17.2502H52.25H52.3334V17.1668H52.4167V17.0835H52.5H52.5834V17.0002H52.6667H52.75V16.9168H52.8334H52.9167V16.8335H53H53.0834H53.25V16.7502H53.3334H53.5H53.75V16.6668H54.5834V16.7502H54.8334H55H55.0834V16.8335H55.1667H55.3334H55.4167V16.9168H55.5H55.5834V17.0002H55.6667H55.75V17.0835H55.8334H55.9167V17.1668H56V17.2502H56.0834H56.1667V17.3335H56.25V17.4168H56.3334V17.5002H56.4167V17.5835H56.5V17.6668H56.5834V17.7502H56.6667V17.8335H56.75V17.9168H56.8334V18.0002V18.0835H56.9167V18.1668H57V18.2502V18.3335H57.0834V18.4168V18.5002H57.1667V18.5835V18.6668H57.25V18.7502V18.8335H57.3334V18.9168V19.0002V19.0835H57.4167V19.1668V19.3335H57.5V19.4168V19.5002V19.6668H57.5834V19.8335V19.9168V20.0835H57.6667V20.3335V20.5835H57.75V21.0835V22.0002V22.5002H57.6667V22.7502V23.0002H57.5834V23.1668V23.3335V23.4168H57.5V23.5835V23.6668V23.8335H57.4167V23.9168V24.0002H57.3334V24.0835V24.1668V24.2502H57.25V24.3335V24.4168V24.5002H57.1667V24.5835V24.6668H57.0834V24.7502V24.8335H57V24.9168V25.0002H56.9167V25.0835H56.8334V25.1668V25.2502H56.75V25.3335H56.6667V25.4168H56.5834V25.5002V25.5835H56.5V25.6668H56.4167H56.3334V25.7502V25.8335H56.25V25.9168H56.1667H56.0834V26.0002H56V26.0835H55.9167H55.8334V26.1668H55.75V26.2502H55.6667H55.5834V26.3335H55.5H55.4167V26.4168H55.3334H55.25H55.1667V26.5002H55.0834H55V26.5835H54.8334H54.75H54.5V26.6668H53.5834V26.5835H53.4167H53.25H53.0834V26.5002H53H52.9167V26.4168H52.8334H52.75H52.6667V26.3335H52.5834H52.5V26.2502H52.4167V26.1668H52.3334H52.25V26.0835H52.1667V26.0002H52.0834H52V25.9168H51.9167V25.8335H51.8334V25.7502H51.75V25.6668V25.5835H51.6667V25.7502V25.9168H51.5834V26.0835V26.1668H51.5V26.3335V26.4168H49.8334V13.0835ZM53.4167 18.3335H53.25H53.0834V18.4168H53H52.8334V18.5002H52.75H52.6667V18.5835H52.5834H52.5V18.6668H52.4167V18.7502H52.3334H52.25V18.8335H52.1667V18.9168H52.0834H52V19.0002H51.9167V19.0835V19.1668H51.8334V24.1668H51.9167V24.2502H52V24.3335H52.0834V24.4168H52.1667V24.5002H52.25H52.3334V24.5835H52.4167V24.6668H52.5V24.7502H52.5834H52.6667H52.75V24.8335H52.8334V24.9168H52.9167H53H53.1667V25.0002H53.3334H53.5834H53.75H54H54.0834V24.9168H54.25H54.3334V24.8335H54.4167H54.5V24.7502H54.5834V24.6668H54.6667H54.75V24.5835H54.8334V24.5002H54.9167V24.4168H55V24.3335V24.2502H55.0834V24.1668H55.1667V24.0835V24.0002H55.25V23.9168V23.8335H55.3334V23.7502V23.6668H55.4167V23.5835V23.5002H55.5V23.3335V23.2502V23.1668H55.5834V23.0002V22.8335V22.6668H55.6667V22.4168V22.0002H55.75V21.1668H55.6667V20.7502V20.5002H55.5834V20.3335V20.2502V20.0835H55.5V20.0002V19.8335V19.7502H55.4167V19.6668V19.5835H55.3334V19.5002V19.4168H55.25V19.3335V19.2502H55.1667V19.1668H55.0834V19.0835V19.0002H55V18.9168V18.8335H54.9167H54.8334V18.7502H54.75V18.6668H54.6667V18.5835H54.5834H54.5V18.5002H54.4167H54.3334V18.4168H54.25H54.1667V18.3335H54H53.8334H53.4167Z" fill="white"/>
<path fill-rule="evenodd" clip-rule="evenodd" d="M28.8333 16.6665H29.9166V16.7498H30.1666H30.3333H30.5V16.8332H30.6666H30.75H30.9166V16.9165H31H31.0833V16.9998H31.1666H31.25V17.0832H31.3333H31.4166H31.5V17.1665H31.5833V17.2498H31.6666H31.75V17.3332H31.8333V17.4165H31.9166V17.4998H32H32.0833V17.5832V17.6665H32.1666V17.7498H32.25V17.8332H32.3333V17.9165H32.4166V17.9998H32.5V18.0832V18.1665H32.5833V18.2498V18.3332V18.4165H32.6666V18.4998H32.75V18.6665V18.7498V18.8332H32.8333V18.9998V19.1665V19.5832H32.9166V25.5832V25.9165H33V26.0832V26.2498V26.4165H31V26.2498V26.0832V25.9165H30.9166V25.5832H30.8333V25.6665H30.75V25.7498H30.6666V25.8332H30.5833V25.9165H30.5H30.4166V25.9998H30.3333V26.0832H30.25V26.1665H30.1666H30.0833V26.2498H30V26.3332H29.9166H29.8333H29.75V26.4165H29.6666H29.5833H29.5V26.4998H29.4166H29.25V26.5832H29.1666H29H28.75V26.6665H27.8333V26.5832H27.6666H27.5H27.3333V26.4998H27.25H27.1666V26.4165H27.0833H27H26.9166V26.3332H26.8333H26.75V26.2498H26.6666V26.1665H26.5833H26.5V26.0832H26.4166V25.9998H26.3333H26.25V25.9165H26.1666V25.8332H26.0833V25.7498H26V25.6665V25.5832H25.9166V25.4998H25.8333V25.4165H25.75V25.3332V25.2498H25.6666V25.1665V25.0832H25.5833V24.9165H25.5V24.8332V24.6665V24.5832H25.4166V24.4165V24.0832V23.6665V23.4165V23.2498H25.5V23.1665V23.0832V22.9998H25.5833V22.9165V22.8332H25.6666V22.7498V22.6665V22.5832H25.75V22.4998H25.8333V22.4165V22.3332H25.9166V22.2498H26V22.1665H26.0833V22.0832H26.1666V21.9998H26.25V21.9165H26.3333V21.8332H26.4166V21.7498H26.5H26.5833V21.6665H26.6666V21.5832H26.75H26.8333V21.4998H26.9166H27V21.4165H27.0833V21.3332H27.1666H27.25H27.3333V21.2498H27.4166H27.5H27.5833V21.1665H27.6666H27.75V21.0832H27.8333H27.9166H28.0833V20.9998H28.1666H28.25H28.4166V20.9165H28.5H28.5833V20.8332H28.75H28.8333H28.9166V20.7498H29.0833H29.1666V20.6665H29.25H29.3333H29.5V20.5832H29.5833H29.75H29.8333V20.4998H29.9166H30V20.4165H30.1666H30.25H30.3333V20.3332H30.5H30.5833H30.75V20.2498H30.8333H30.9166V19.7498H30.8333V19.4998V19.3332V19.2498H30.75V19.1665V19.0832H30.6666V18.9998V18.9165H30.5833V18.8332H30.5V18.7498H30.4166V18.6665H30.3333V18.5832H30.25V18.4998H30.1666H30.0833H30V18.4165H29.9166H29.8333H29.6666V18.3332H29.5H29H28.75V18.4165H28.6666H28.5H28.4166V18.4998H28.3333H28.25V18.5832H28.1666H28.0833V18.6665H28V18.7498H27.9166H27.8333V18.8332H27.75V18.9165H27.6666V18.9998H27.5833H27.5V19.0832V19.1665H27.4166V19.2498H27.3333V19.3332H27.25V19.4165V19.4998H27.1666V19.5832V19.6665H27.0833V19.7498H27V19.6665H26.9166H26.8333V19.5832H26.75H26.6666V19.4998H26.5833V19.4165H26.5H26.4166V19.3332H26.3333H26.25V19.2498H26.1666H26.0833V19.1665H26H25.9166V19.0832H25.8333V18.9998H25.75H25.6666V18.9165H25.5833V18.8332H25.6666V18.7498V18.6665H25.75V18.5832V18.4998H25.8333V18.4165H25.9166V18.3332V18.2498H26V18.1665H26.0833V18.0832V17.9998H26.1666V17.9165H26.25V17.8332H26.3333V17.7498H26.4166V17.6665H26.5H26.5833V17.5832V17.4998H26.6666H26.75V17.4165H26.8333H26.9166V17.3332H27V17.2498H27.0833H27.1666V17.1665H27.25V17.0832H27.3333H27.4166H27.5V16.9998H27.5833H27.75V16.9165H27.8333H27.9166V16.8332H28H28.0833H28.25V16.7498H28.4166H28.5833H28.8333V16.6665ZM30.8333 21.6665H30.75V21.7498H30.5833H30.5H30.4166V21.8332H30.3333H30.25V21.9165H30.0833H30H29.9166V21.9998H29.8333H29.75H29.5833V22.0832H29.5H29.4166V22.1665H29.3333H29.25H29.0833V22.2498H29H28.9166H28.8333V22.3332H28.75H28.5833V22.4165H28.5H28.4166V22.4998H28.3333H28.25V22.5832H28.1666H28.0833V22.6665H28V22.7498H27.9166V22.8332H27.8333H27.75V22.9165V22.9998H27.6666V23.0832H27.5833V23.1665V23.2498H27.5V23.3332V23.4165V23.4998H27.4166V23.9165H27.5V24.0832V24.1665V24.2498H27.5833V24.3332V24.4165H27.6666V24.4998V24.5832H27.75V24.6665H27.8333V24.7498H27.9166V24.8332H28H28.0833V24.9165H28.25V24.9998H28.3333H28.5V25.0832H28.75H28.9166H29.25V24.9998H29.3333H29.5H29.5833V24.9165H29.6666H29.75V24.8332H29.8333H29.9166V24.7498H30H30.0833V24.6665H30.1666H30.25V24.5832H30.3333V24.4998H30.4166V24.4165H30.5H30.5833V24.3332H30.6666V24.2498H30.75V24.1665H30.8333V24.0832V23.9998H30.9166V21.6665H30.8333Z" fill="white"/>
<path fill-rule="evenodd" clip-rule="evenodd" d="M98 16.6665H99.0834V16.7498H99.4167H99.5834H99.75V16.8332H99.8334H100H100.083V16.9165H100.167H100.25V16.9998H100.333H100.417H100.5V17.0832H100.583H100.667V17.1665H100.75V17.2498H100.833H100.917V17.3332H101V17.4165H101.083H101.167V17.4998H101.25V17.5832V17.6665H101.333H101.417V17.7498H101.5V17.8332V17.9165H101.583V17.9998H101.667V18.0832V18.1665H101.75V18.2498V18.3332H101.833V18.4165V18.4998H101.917V18.5832V18.6665V18.7498H102V18.9165V19.0832V19.3332H102.083V25.1665V25.7498H102.167V25.9998V26.1665V26.3332H102.25V26.4165H100.25V26.3332H100.167V26.1665V25.9165V25.6665H100.083V25.5832H100V25.6665H99.9167V25.7498H99.8334V25.8332H99.75V25.9165H99.6667V25.9998H99.5834H99.5V26.0832H99.4167V26.1665H99.3334H99.25V26.2498H99.1667V26.3332H99.0834H99H98.9167V26.4165H98.8334H98.75H98.6667V26.4998H98.5834H98.5V26.5832H98.3334H98.1667H97.9167V26.6665H97V26.5832H96.8334H96.6667H96.5834V26.4998H96.4167H96.3334V26.4165H96.25H96.1667V26.3332H96.0834H96H95.9167V26.2498H95.8334V26.1665H95.75H95.6667V26.0832H95.5834V25.9998H95.5V25.9165H95.4167V25.8332H95.3334V25.7498H95.25V25.6665H95.1667V25.5832H95.0834V25.4998V25.4165H95V25.3332H94.9167V25.2498V25.1665H94.8334V25.0832V24.9998H94.75V24.9165V24.8332H94.6667V24.7498V24.5832V24.4165H94.5834V24.2498V23.5832V23.4165H94.6667V23.2498V23.1665V22.9998H94.75V22.9165H94.8334V22.7498V22.6665H94.9167V22.5832V22.4998H95V22.4165H95.0834V22.3332V22.2498H95.1667V22.1665H95.25V22.0832H95.3334V21.9998H95.4167V21.9165H95.5V21.8332H95.5834H95.6667V21.7498H95.75V21.6665H95.8334V21.5832H95.9167H96V21.4998H96.0834H96.1667V21.4165H96.25H96.3334V21.3332H96.4167H96.5V21.2498H96.5834H96.6667H96.75V21.1665H96.8334H96.9167V21.0832H97H97.1667H97.25V20.9998H97.3334H97.5H97.5834V20.9165H97.6667H97.75V20.8332H97.9167H98H98.1667V20.7498H98.25H98.3334V20.6665H98.4167H98.5834H98.6667V20.5832H98.75H98.9167H99V20.4998H99.1667H99.25V20.4165H99.3334H99.4167H99.5834V20.3332H99.6667H99.75H99.9167V20.2498H100H100.083V19.5832H100V19.4165V19.3332V19.1665H99.9167V19.0832V18.9998H99.8334V18.9165H99.75V18.8332H99.6667V18.7498H99.5834V18.6665H99.5V18.5832H99.4167V18.4998H99.3334H99.25H99.1667V18.4165H99.0834H99H98.8334V18.3332H98.6667H98.1667H98V18.4165H97.8334H97.75H97.6667V18.4998H97.5834H97.5H97.4167V18.5832H97.3334H97.25V18.6665H97.1667V18.7498H97.0834H97V18.8332H96.9167V18.9165H96.8334V18.9998H96.75V19.0832H96.6667V19.1665H96.5834V19.2498H96.5V19.3332V19.4165H96.4167V19.4998V19.5832H96.3334V19.6665H96.25H96.1667H96.0834H96V19.5832H95.9167V19.4998H95.8334H95.75V19.4165H95.6667H95.5834V19.3332H95.5H95.4167V19.2498H95.3334V19.1665H95.25H95.1667H95.0834V19.0832H95V18.9998H94.9167H94.8334V18.9165H94.75V18.8332H94.8334V18.7498V18.6665H94.9167V18.5832V18.4998H95V18.4165H95.0834V18.3332V18.2498H95.1667V18.1665H95.25V18.0832H95.3334V17.9998H95.4167V17.9165H95.5V17.8332H95.5834V17.7498H95.6667V17.6665H95.75V17.5832H95.8334V17.4998H95.9167V17.4165H96H96.0834V17.3332H96.1667V17.2498H96.25H96.3334V17.1665H96.4167V17.0832H96.5H96.5834H96.6667V16.9998H96.75H96.8334H96.9167V16.9165H97H97.0834V16.8332H97.1667H97.3334H97.4167V16.7498H97.5834H97.75H98V16.6665ZM100 21.6665H99.9167V21.7498H99.8334H99.75H99.6667V21.8332H99.5H99.4167V21.9165H99.3334H99.1667H99.0834V21.9998H99H98.9167H98.75V22.0832H98.6667H98.5834V22.1665H98.5H98.4167H98.25V22.2498H98.1667H98.0834H98V22.3332H97.9167H97.8334V22.4165H97.75H97.6667H97.5834V22.4998H97.5H97.4167V22.5832H97.3334H97.25V22.6665H97.1667V22.7498H97.0834V22.8332H97V22.9165H96.9167V22.9998H96.8334V23.0832H96.75V23.1665V23.2498H96.6667V23.3332V23.4165V23.9998V24.1665V24.2498H96.75V24.3332V24.4165H96.8334V24.4998H96.9167V24.5832V24.6665H97V24.7498H97.0834H97.1667V24.8332H97.25V24.9165H97.3334H97.4167V24.9998H97.5H97.5834H97.6667V25.0832H97.9167H98.1667H98.4167V24.9998H98.5H98.6667H98.75V24.9165H98.8334H98.9167V24.8332H99H99.0834H99.1667V24.7498H99.25V24.6665H99.3334H99.4167V24.5832H99.5V24.4998H99.5834H99.6667V24.4165H99.75V24.3332H99.8334V24.2498H99.9167V24.1665H100V24.0832H100.083V21.6665H100Z" fill="white"/>
<path fill-rule="evenodd" clip-rule="evenodd" d="M112.917 16.6665H113.833V16.7498H114.083H114.25H114.417V16.8332H114.5H114.667H114.75V16.9165H114.833H114.917V16.9998H115.083V17.0832H115.167H115.25H115.333V17.1665H115.417V17.2498H115.5H115.583V17.3332V17.4165H115.667H115.75V17.4998H115.833V17.5832H115.917V17.6665H116V17.7498H116.083V17.8332H116.167V17.9165H116.25V17.9998H116.333V18.0832V18.1665H116.417V18.2498H116.5V18.3332V18.4165H116.583V18.4998V18.5832H116.667V18.6665V18.7498H116.75V18.8332V18.9165H116.833V18.9998V19.0832V19.1665H116.917V19.3332V19.4165V19.4998H117V19.6665V19.8332H117.083V19.9165V20.1665V20.4165H117.167V20.9998V22.0832H111.25V22.6665V22.9165H111.333V23.0832V23.2498V23.3332H111.417V23.4165V23.4998H111.5V23.6665V23.7498H111.583V23.8332V23.9165V23.9998H111.667V24.0832H111.75V24.1665H111.833V24.2498V24.3332H111.917V24.4165H112V24.4998H112.083V24.5832H112.167V24.6665H112.25H112.333V24.7498H112.417V24.8332H112.5H112.583V24.9165H112.667H112.75H112.833V24.9998H112.917H113.083V25.0832H113.25H113.667H113.917V24.9998H114.083H114.167V24.9165H114.25H114.333H114.417V24.8332H114.5H114.583V24.7498H114.667V24.6665H114.75H114.833V24.5832H114.917V24.4998H115V24.4165H115.083V24.3332H115.167V24.2498H115.25V24.1665H115.333V24.0832V23.9998H115.417V23.9165V23.8332H115.5V23.7498H115.583V23.6665H115.667V23.7498H115.75H115.833H115.917V23.8332H116H116.083V23.9165H116.167H116.25V23.9998H116.333H116.417H116.5V24.0832H116.583H116.667V24.1665H116.833V24.2498H116.917H117H117.083V24.3332H117.167V24.4165H117.083V24.4998V24.5832H117V24.6665H116.917V24.7498V24.8332H116.833V24.9165V24.9998H116.75V25.0832H116.667V25.1665V25.2498H116.583V25.3332H116.5V25.4165H116.417V25.4998H116.333V25.5832H116.25V25.6665H116.167V25.7498H116.083V25.8332H116V25.9165H115.917H115.833V25.9998H115.75V26.0832H115.667H115.583V26.1665H115.5H115.417V26.2498H115.333V26.3332H115.25H115.167H115.083V26.4165H115H114.917H114.833V26.4998H114.667H114.583V26.5832H114.417H114.25H114V26.6665H112.917V26.5832H112.667H112.5H112.333V26.4998H112.25H112.083V26.4165H112H111.917H111.833V26.3332H111.75H111.667H111.583V26.2498H111.5V26.1665H111.417H111.333V26.0832H111.25H111.167V25.9998H111.083V25.9165H111H110.917V25.8332H110.833V25.7498H110.75V25.6665H110.667V25.5832H110.583V25.4998H110.5V25.4165H110.417V25.3332H110.333V25.2498H110.25V25.1665V25.0832H110.167V24.9998H110.083V24.9165H110V24.8332V24.7498H109.917V24.6665V24.5832H109.833V24.4998V24.4165H109.75V24.3332V24.2498V24.1665H109.667V24.0832V23.9998H109.583V23.9165V23.8332V23.7498H109.5V23.6665V23.4998V23.4165H109.417V23.2498V23.0832H109.333V22.9165V22.5832V22.1665H109.25V21.4165H109.333V20.9998V20.6665V20.4998H109.417V20.3332V20.1665H109.5V19.9998V19.9165V19.7498H109.583V19.6665V19.5832V19.4998H109.667V19.4165V19.3332H109.75V19.2498V19.1665V19.0832H109.833V18.9998V18.9165V18.8332H109.917V18.7498H110V18.6665V18.5832H110.083V18.4998V18.4165H110.167V18.3332H110.25V18.2498V18.1665H110.333V18.0832H110.417V17.9998H110.5V17.9165H110.583V17.8332V17.7498H110.667H110.75V17.6665H110.833V17.5832V17.4998H110.917H111V17.4165H111.083V17.3332H111.167H111.25V17.2498H111.333V17.1665H111.417H111.5V17.0832H111.583H111.667V16.9998H111.75H111.833V16.9165H112H112.083V16.8332H112.167H112.25H112.333V16.7498H112.5H112.667H112.917V16.6665ZM113.083 18.2498V18.3332H112.917H112.833H112.75V18.4165H112.667H112.583H112.5V18.4998H112.417V18.5832H112.333H112.25V18.6665H112.167V18.7498H112.083V18.8332H112V18.9165H111.917V18.9998H111.833V19.0832H111.75V19.1665V19.2498H111.667V19.3332H111.583V19.4165V19.4998V19.5832H111.5V19.6665V19.7498V19.8332H111.417V19.9165V19.9998H111.333V20.1665V20.3332V20.4998H111.25V20.7498H115.25V20.0832V19.9165H115.167V19.7498V19.6665V19.5832H115.083V19.4998V19.3332H115V19.2498V19.1665H114.917V19.0832V18.9998H114.833V18.9165H114.75V18.8332H114.667V18.7498V18.6665H114.583H114.5V18.5832H114.417V18.4998H114.333V18.4165H114.25H114.167H114.083V18.3332H114H113.917H113.75V18.2498H113.083Z" fill="white"/>
<path fill-rule="evenodd" clip-rule="evenodd" d="M66.6667 16.6665H67.5833V16.7498H67.8333H68H68.1667V16.8332H68.25H68.4167H68.5V16.9165H68.5833H68.6667V16.9998H68.8333V17.0832H68.9167H69H69.0833V17.1665H69.1667V17.2498H69.25H69.3333V17.3332V17.4165H69.4167H69.5V17.4998H69.5833V17.5832H69.6667V17.6665H69.75V17.7498H69.8333V17.8332H69.9167V17.9165H70V17.9998V18.0832H70.0833V18.1665H70.1667V18.2498H70.25V18.3332V18.4165H70.3333V18.4998V18.5832H70.4167V18.6665V18.7498H70.5V18.8332V18.9165V18.9998H70.5833V19.0832V19.1665H70.6667V19.3332V19.4165V19.4998H70.75V19.6665V19.8332V19.9165H70.8333V20.1665V20.4165H70.9167V20.9998V22.0832H65V22.6665V22.9165H65.0833V23.0832V23.2498V23.3332H65.1667V23.4165V23.4998V23.6665H65.25V23.7498H65.3333V23.8332V23.9165V23.9998H65.4167V24.0832V24.1665H65.5H65.5833V24.2498V24.3332H65.6667V24.4165H65.75V24.4998H65.8333V24.5832H65.9167V24.6665H66H66.0833V24.7498H66.1667V24.8332H66.25H66.3333V24.9165H66.4167H66.5833V24.9998H66.6667H66.8333V25.0832H67H67.4167H67.6667V24.9998H67.8333H67.9167V24.9165H68H68.0833H68.1667V24.8332H68.25H68.3333V24.7498H68.4167V24.6665H68.5H68.5833V24.5832H68.6667V24.4998H68.75V24.4165H68.8333V24.3332H68.9167V24.2498H69V24.1665H69.0833V24.0832V23.9998H69.1667V23.9165V23.8332H69.25V23.7498H69.3333V23.6665H69.4167V23.7498H69.5H69.5833H69.6667V23.8332H69.75H69.8333V23.9165H69.9167H70V23.9998H70.0833H70.1667H70.25V24.0832H70.3333H70.4167V24.1665H70.5H70.5833V24.2498H70.6667H70.75H70.8333V24.3332H70.9167V24.4165H70.8333V24.4998H70.75V24.5832V24.6665H70.6667V24.7498V24.8332H70.5833V24.9165H70.5V24.9998V25.0832H70.4167V25.1665V25.2498H70.3333V25.3332H70.25V25.4165H70.1667V25.4998H70.0833V25.5832H70V25.6665H69.9167V25.7498H69.8333V25.8332H69.75V25.9165H69.6667H69.5833V25.9998H69.5V26.0832H69.4167H69.3333V26.1665H69.25H69.1667V26.2498H69.0833V26.3332H69H68.9167H68.8333V26.4165H68.75H68.6667H68.5833V26.4998H68.4167H68.3333V26.5832H68.1667H68H67.75V26.6665H66.6667V26.5832H66.4167H66.25H66.0833V26.4998H65.9167H65.8333V26.4165H65.75H65.6667H65.5833V26.3332H65.5H65.4167H65.3333V26.2498H65.25V26.1665H65.1667H65.0833V26.0832H65H64.9167V25.9998H64.8333V25.9165H64.75H64.6667V25.8332H64.5833V25.7498H64.5V25.6665H64.4167V25.5832H64.3333V25.4998H64.25V25.4165H64.1667V25.3332H64.0833V25.2498H64V25.1665H63.9167V25.0832V24.9998H63.8333V24.9165H63.75V24.8332V24.7498H63.6667V24.6665V24.5832H63.5833V24.4998V24.4165H63.5V24.3332V24.2498H63.4167V24.1665V24.0832V23.9998H63.3333V23.9165V23.8332V23.7498H63.25V23.6665V23.4998H63.1667V23.4165V23.2498V23.0832H63.0833V22.9165V22.5832V22.2498H63V21.4165H63.0833V20.9998V20.6665V20.4998H63.1667V20.3332V20.1665V19.9998H63.25V19.9165V19.7498H63.3333V19.6665V19.5832V19.4998H63.4167V19.4165V19.3332V19.2498H63.5V19.1665V19.0832H63.5833V18.9998V18.9165V18.8332H63.6667V18.7498V18.6665H63.75V18.5832H63.8333V18.4998V18.4165H63.9167V18.3332V18.2498H64V18.1665H64.0833V18.0832H64.1667V17.9998V17.9165H64.25H64.3333V17.8332V17.7498H64.4167V17.6665H64.5H64.5833V17.5832V17.4998H64.6667H64.75V17.4165H64.8333V17.3332H64.9167V17.2498H65H65.0833V17.1665H65.1667V17.0832H65.25H65.3333H65.4167V16.9998H65.5833V16.9165H65.6667H65.75V16.8332H65.9167H66H66.0833V16.7498H66.25H66.4167H66.6667V16.6665ZM66.8333 18.2498V18.3332H66.6667H66.5833H66.4167V18.4165H66.3333H66.25V18.4998H66.1667V18.5832H66.0833H66V18.6665H65.9167V18.7498H65.8333V18.8332H65.75V18.9165H65.6667V18.9998H65.5833V19.0832H65.5V19.1665V19.2498H65.4167V19.3332H65.3333V19.4165V19.4998V19.5832H65.25V19.6665V19.7498H65.1667V19.8332V19.9165V19.9998H65.0833V20.1665V20.3332V20.4998H65V20.7498H69V20.1665V19.9165H68.9167V19.7498V19.6665V19.5832H68.8333V19.4998V19.3332H68.75V19.2498V19.1665H68.6667V19.0832V18.9998H68.5833V18.9165H68.5V18.8332H68.4167V18.7498V18.6665H68.3333H68.25V18.5832H68.1667V18.4998H68.0833V18.4165H68H67.9167H67.8333V18.3332H67.75H67.6667H67.5V18.2498H66.8333Z" fill="white"/>
<path d="M59.3334 13.0835H61.3334V26.4168H59.3334V13.0835Z" fill="white"/>
<path d="M108.75 16.75H109.083V18.6667H109H108.583H108.417V18.75H108.25H108.167H108.083V18.8333H108H107.833V18.9167H107.75H107.583V19H107.5H107.417V19.0833H107.333V19.1667H107.25H107.167V19.25H107.083H107V19.3333H106.917V19.4167H106.833H106.75V19.5H106.667V19.5833H106.583H106.5V19.6667H106.417V19.75H106.333V19.8333H106.25V19.9167H106.167H106.083V20H106V20.0833H105.917V26.4167H103.917V16.9167H105.833V18.6667V18.5833H105.917V18.5H106V18.4167H106.083V18.3333V18.25H106.167H106.25V18.1667H106.333V18.0833V18H106.417H106.5V17.9167H106.583V17.8333H106.667V17.75H106.75V17.6667H106.833H106.917V17.5833H107V17.5H107.083V17.4167H107.167H107.25V17.3333H107.333V17.25H107.417H107.5V17.1667H107.583V17.0833H107.667H107.75H107.833V17H107.917H108H108.083V16.9167H108.167H108.25V16.8333H108.417H108.583H108.75V16.75Z" fill="white"/>
</svg>
