<svg width="126" height="36" viewBox="0 0 126 36" fill="none" xmlns="http://www.w3.org/2000/svg">
<mask id="mask0_1_137" style="mask-type:luminance" maskUnits="userSpaceOnUse" x="0" y="0" width="126" height="36">
<path d="M125.294 0.203125H0.703125V35.8014H125.294V0.203125Z" fill="white"/>
</mask>
<g mask="url(#mask0_1_137)">
<mask id="mask1_1_137" style="mask-type:luminance" maskUnits="userSpaceOnUse" x="0" y="0" width="126" height="36">
<path d="M0.703125 0.203125H125.295V35.8015H0.703125V0.203125Z" fill="white"/>
</mask>
<g mask="url(#mask1_1_137)">
<path d="M48.4437 9.3073C48.4186 9.35977 48.3825 9.40629 48.338 9.44379C48.2935 9.48129 48.2416 9.50889 48.1856 9.52478L45.8272 10.224C45.5385 10.3074 45.3889 10.224 45.271 9.93527C45.1355 9.36302 44.7971 8.8593 44.3185 8.51749C43.84 8.17568 43.2537 8.01896 42.6684 8.07637C40.4485 8.07637 39.6887 9.39129 39.6887 11.1618V15.235C39.6887 17.0055 40.438 18.3204 42.6684 18.3204C44.504 18.3204 45.4429 17.466 45.4429 15.6066V15.0503H43.0455C42.9996 15.0542 42.9534 15.0476 42.9103 15.0311C42.8672 15.0145 42.8285 14.9884 42.797 14.9548C42.7655 14.9211 42.742 14.8807 42.7283 14.8367C42.7146 14.7926 42.711 14.7461 42.7179 14.7005V12.4934C42.7121 12.4479 42.7164 12.4018 42.7305 12.3582C42.7446 12.3147 42.7681 12.2747 42.7994 12.2413C42.8307 12.2079 42.869 12.1818 42.9115 12.1649C42.9541 12.148 42.9998 12.1407 43.0455 12.1435H48.3853C48.4309 12.1366 48.4775 12.1402 48.5215 12.1538C48.5656 12.1675 48.6059 12.191 48.6396 12.2225C48.6733 12.2541 48.6994 12.2928 48.7159 12.3359C48.7325 12.3789 48.739 12.4252 48.7352 12.4711V15.8374C48.7352 19.0557 46.3712 21.4808 42.6974 21.4808C38.341 21.4808 36.3047 18.9005 36.3047 15.3768V11.0728C36.3047 7.52683 38.341 4.96875 42.6974 4.96875C46.221 4.96875 47.8146 6.97783 48.452 8.99192M60.4387 12.9967V20.8951C60.4411 20.9388 60.4343 20.9825 60.4186 21.0233C60.403 21.0641 60.379 21.1012 60.3481 21.1321C60.3171 21.1631 60.2801 21.1871 60.2392 21.2027C60.1984 21.2183 60.1547 21.2252 60.111 21.2227H57.7026C57.6574 21.2276 57.6116 21.2226 57.5685 21.2082C57.5254 21.1937 57.4858 21.1702 57.4526 21.1391C57.4194 21.108 57.3933 21.0701 57.3761 21.028C57.3588 20.9859 57.3509 20.9406 57.3527 20.8951V19.6019C57.0107 20.1776 56.5226 20.6526 55.9379 20.9791C55.3532 21.3055 54.6927 21.4717 54.0232 21.4608C51.7482 21.4608 50.2776 19.9957 50.2776 17.743C50.2776 15.4903 51.6592 14.2388 55.0277 14.003C55.7555 13.9475 56.4865 13.9475 57.2142 14.003V13.1041C57.2142 11.9221 56.6024 11.4393 55.5495 11.4393C55.1837 11.3876 54.8117 11.4724 54.5046 11.6776C54.1975 11.8829 53.9768 12.1941 53.8847 12.5518C53.7734 12.8126 53.6906 12.8571 53.4464 12.7904L51.0379 12.1785C50.7993 12.1118 50.7771 11.9789 50.8216 11.807C51.1492 10.0755 52.7917 8.80336 55.6774 8.80336C58.7183 8.80336 60.4275 10.2496 60.4275 12.965M57.2092 17.0995V15.9953C56.5666 15.9721 55.9231 15.9944 55.2836 16.0621C54.0627 16.2117 53.4024 16.5838 53.4024 17.5272C53.4024 18.376 53.9587 18.8365 54.912 18.8365C55.4296 18.8472 55.936 18.6857 56.3518 18.3773C56.7676 18.0689 57.0692 17.6312 57.2092 17.1328M69.1291 8.83673C69.803 8.82457 70.4621 9.03532 71.0039 9.43624C71.5458 9.83717 71.94 10.4058 72.1255 11.0539C73.0243 9.73893 74.1179 8.83395 75.6492 8.83395C77.7689 8.83395 78.9787 10.4987 78.9787 13.0346V20.8951C78.9753 20.9428 78.9622 20.9894 78.9404 21.0319C78.9185 21.0744 78.8883 21.1121 78.8515 21.1427C78.8147 21.1733 78.7722 21.1962 78.7264 21.2099C78.6806 21.2237 78.6324 21.228 78.5849 21.2227H76.0713C76.0238 21.2281 75.9756 21.2238 75.9298 21.2101C75.8839 21.1964 75.8413 21.1735 75.8046 21.1429C75.7678 21.1123 75.7375 21.0746 75.7157 21.032C75.6939 20.9894 75.6809 20.9429 75.6775 20.8951V13.6086C75.6775 12.4961 75.1947 11.8548 74.3426 11.8548C73.4904 11.8548 72.7891 12.6041 72.4614 13.7415V20.8946C72.4645 20.9365 72.4589 20.9786 72.4449 21.0183C72.4309 21.0579 72.4089 21.0943 72.3803 21.125C72.3516 21.1558 72.3169 21.1803 72.2783 21.197C72.2397 21.2137 72.1981 21.2223 72.1561 21.2222H69.4334C69.2392 21.2222 69.1502 21.0892 69.1502 20.8946V13.608C69.1502 12.4956 68.6674 11.8543 67.8153 11.8543C66.9632 11.8543 66.2395 12.6424 65.9342 13.7632V20.894C65.9385 20.9381 65.933 20.9826 65.918 21.0243C65.9031 21.066 65.8791 21.1039 65.8478 21.1352C65.8164 21.1666 65.7786 21.1906 65.7368 21.2055C65.6951 21.2204 65.6506 21.2259 65.6065 21.2216H62.9367C62.8926 21.2259 62.8481 21.2204 62.8063 21.2055C62.7646 21.1906 62.7268 21.1666 62.6954 21.1352C62.6641 21.1039 62.6401 21.066 62.6252 21.0243C62.6102 20.9826 62.6047 20.9381 62.609 20.894V9.40797C62.6089 9.36593 62.6175 9.32432 62.6342 9.28574C62.6509 9.24716 62.6754 9.21245 62.7062 9.18378C62.737 9.15512 62.7733 9.13311 62.813 9.11914C62.8526 9.10517 62.8947 9.09954 62.9367 9.10261H65.4953C65.5374 9.09867 65.5799 9.10369 65.6199 9.11734C65.66 9.13099 65.6967 9.15296 65.7276 9.1818C65.7585 9.21064 65.783 9.24571 65.7995 9.28469C65.8159 9.32367 65.8239 9.36568 65.8229 9.40797V10.7841C66.1754 10.2112 66.6635 9.73385 67.2442 9.39432C67.8249 9.05479 68.4803 8.86348 69.1525 8.83729M92.7425 9.10372C92.8092 9.38684 92.7425 9.60432 92.4593 9.65994L90.1399 10.3369C90.0877 10.362 90.0302 10.3744 89.9723 10.373C89.9143 10.3716 89.8575 10.3564 89.8066 10.3288C89.7557 10.3011 89.712 10.2618 89.6792 10.214C89.6465 10.1662 89.6255 10.1113 89.6182 10.0538C89.2844 8.9413 88.7193 8.0836 87.099 8.0836C85.1066 8.0836 84.4742 9.39852 84.4742 11.169V15.2422C84.4742 17.0127 85.1973 18.3276 87.099 18.3276C88.8083 18.3276 89.463 17.362 89.7238 16.1583C89.7297 16.0995 89.7499 16.043 89.7827 15.9938C89.8155 15.9446 89.8599 15.9042 89.912 15.8762C89.9641 15.8482 90.0223 15.8335 90.0815 15.8333C90.1406 15.8332 90.1989 15.8475 90.2511 15.8752L92.5762 16.63C92.6324 16.6462 92.6847 16.6738 92.7298 16.7111C92.7749 16.7484 92.8119 16.7945 92.8384 16.8467C92.865 16.8988 92.8805 16.9559 92.8841 17.0143C92.8877 17.0727 92.8792 17.1312 92.8593 17.1862C92.303 19.5502 90.606 21.4691 87.0601 21.4691C83.0814 21.4691 81.0668 18.8888 81.0668 15.3651V11.0728C81.0668 7.52683 83.1198 4.96875 87.0601 4.96875C90.517 4.96875 92.1378 6.80429 92.748 9.12486M104.386 13.0006V20.899C104.389 20.9427 104.382 20.9863 104.366 21.0272C104.351 21.068 104.327 21.1051 104.296 21.136C104.265 21.167 104.228 21.191 104.187 21.2066C104.146 21.2222 104.102 21.229 104.059 21.2266H101.65C101.605 21.2315 101.559 21.2265 101.516 21.2121C101.473 21.1976 101.434 21.174 101.4 21.143C101.367 21.1119 101.341 21.074 101.324 21.0319C101.307 20.9898 101.299 20.9445 101.301 20.899V19.6019C100.958 20.1776 100.47 20.6526 99.8857 20.9791C99.301 21.3055 98.6405 21.4717 97.971 21.4608C95.696 21.4608 94.2309 19.9957 94.2309 17.743C94.2309 15.4903 95.607 14.2388 98.9755 14.003C99.7051 13.9474 100.438 13.9474 101.168 14.003V13.1041C101.168 11.9221 100.552 11.4393 99.5028 11.4393C99.1375 11.3905 98.7669 11.4766 98.4605 11.6814C98.154 11.8861 97.9327 12.1956 97.838 12.5518C97.7323 12.8126 97.6439 12.8571 97.3997 12.7904L94.9968 12.1785C94.7527 12.1118 94.7304 11.9789 94.7743 11.807C95.102 10.0755 96.7445 8.80336 99.6352 8.80336C102.676 8.80336 104.38 10.2496 104.38 12.965M101.167 17.0995V15.9953C100.524 15.9719 99.8809 15.9943 99.2414 16.0621C98.0177 16.2117 97.3602 16.5838 97.3602 17.5272C97.3602 18.376 97.9165 18.8365 98.8698 18.8365C99.3872 18.8463 99.8931 18.6844 100.309 18.3761C100.724 18.0679 101.026 17.6307 101.167 17.1328M113.758 9.31953V11.6613C113.758 11.9444 113.647 12.0551 113.364 12.0551H113.01C111.261 12.0551 110.235 12.8432 109.885 14.1581V20.8951C109.888 20.9357 109.883 20.9764 109.87 21.015C109.857 21.0536 109.837 21.0891 109.81 21.1197C109.783 21.1502 109.75 21.175 109.714 21.1927C109.677 21.2104 109.637 21.2206 109.597 21.2227H106.822C106.782 21.2206 106.742 21.2104 106.705 21.1927C106.668 21.175 106.636 21.1502 106.609 21.1197C106.582 21.0891 106.561 21.0536 106.549 21.015C106.536 20.9764 106.53 20.9357 106.533 20.8951V9.40797C106.532 9.36543 106.539 9.32299 106.555 9.28357C106.571 9.24416 106.596 9.20871 106.627 9.17968C106.658 9.15064 106.695 9.12872 106.735 9.11541C106.776 9.1021 106.819 9.09774 106.861 9.10261H109.358C109.619 9.10261 109.686 9.27448 109.686 9.45247V11.0728C110.006 10.411 110.512 9.85644 111.141 9.47625C111.77 9.09606 112.497 8.90657 113.232 8.93073C113.67 8.93073 113.788 8.99748 113.788 9.30229M118.055 16.1439V16.6044C118.055 17.8754 118.715 18.7687 120.275 18.7687C121.835 18.7687 122.201 18.2125 122.594 17.481C122.789 17.1534 122.878 17.1095 123.227 17.2585L124.951 18.1351C125.307 18.3126 125.328 18.485 125.174 18.8121C124.43 20.4768 122.571 21.4591 120.252 21.4591C116.747 21.4591 114.912 19.3839 114.912 16.5371V13.7643C114.912 10.9899 116.636 8.83673 120.228 8.83673C123.641 8.83673 125.306 11.006 125.306 13.6981V15.6238C125.306 15.9514 125.195 16.18 124.75 16.18L118.055 16.1439ZM118.055 13.5852V14.0018H122.278V13.5858C122.304 13.3035 122.268 13.0189 122.172 12.7521C122.076 12.4853 121.923 12.243 121.722 12.0422C121.522 11.8415 121.28 11.6873 121.014 11.5906C120.747 11.4939 120.463 11.4571 120.18 11.4827C119.897 11.4567 119.611 11.4931 119.343 11.5893C119.074 11.6854 118.831 11.8391 118.628 12.0395C118.426 12.2398 118.269 12.4821 118.17 12.7492C118.071 13.0163 118.032 13.3013 118.055 13.5852Z" fill="white"/>
<path d="M15.8358 0.203147H1.15255C1.09374 0.202559 1.0354 0.213635 0.9809 0.235733C0.926398 0.257832 0.876818 0.290516 0.835025 0.331895C0.793233 0.373273 0.760057 0.422526 0.737417 0.476806C0.714777 0.531085 0.703122 0.589314 0.703125 0.648126V22.0016C0.704894 25.6607 2.15971 29.1693 4.74771 31.7561C7.33571 34.3428 10.8451 35.7959 14.5042 35.7959H15.8358C19.4943 35.7959 23.0029 34.3426 25.5898 31.7557C28.1768 29.1687 29.6301 25.6601 29.6301 22.0016V13.9987C29.6301 12.1872 29.2733 10.3934 28.5801 8.71973C27.8868 7.04613 26.8708 5.52545 25.5898 4.24453C24.3089 2.9636 22.7882 1.94752 21.1146 1.25429C19.441 0.561061 17.6473 0.20426 15.8358 0.20426M25.1976 22.2335C25.1976 27.4276 21.3852 31.3512 15.4475 31.3512C8.41683 31.3512 5.13122 27.1795 5.13122 21.4849V14.5315C5.13122 8.80236 8.41628 4.63736 15.4364 4.63736C21.1243 4.63736 23.7047 7.88904 24.7314 11.1413C24.771 11.2276 24.7915 11.3215 24.7915 11.4164C24.7916 11.5114 24.7711 11.6052 24.7316 11.6915C24.692 11.7778 24.6343 11.8546 24.5624 11.9166C24.4905 11.9786 24.406 12.0244 24.3148 12.0508L20.4969 13.1632C20.0419 13.3017 19.7922 13.1632 19.6537 12.7027C19.0491 10.7603 17.7781 9.69899 15.4475 9.69899C11.8404 9.69899 10.6417 11.8188 10.6417 14.6934V21.2791C10.6417 24.1425 11.8404 26.2734 15.4475 26.2734C18.4161 26.2734 19.9702 24.8917 19.9702 21.8892V21.0293H15.9915C15.916 21.0396 15.8392 21.0323 15.767 21.008C15.6948 20.9837 15.6293 20.9431 15.5754 20.8892C15.5216 20.8353 15.4809 20.7698 15.4566 20.6976C15.4323 20.6254 15.425 20.5486 15.4353 20.4731V16.8287C15.4292 16.7541 15.4395 16.6791 15.4653 16.6089C15.4911 16.5387 15.5319 16.4749 15.5848 16.422C15.6377 16.3691 15.7015 16.3283 15.7717 16.3025C15.8419 16.2767 15.9169 16.2664 15.9915 16.2725H24.6313C24.7041 16.263 24.7781 16.2699 24.8479 16.2926C24.9177 16.3153 24.9816 16.3533 25.0349 16.4038C25.0881 16.4543 25.1295 16.5161 25.1559 16.5846C25.1823 16.6531 25.1931 16.7266 25.1876 16.7998L25.1976 22.2335Z" fill="#734BC3"/>
<path d="M39.5609 25.9465C39.5672 25.9575 39.5709 25.9698 39.5717 25.9825C39.5725 25.9952 39.5705 26.0079 39.5656 26.0196C39.5608 26.0314 39.5534 26.0418 39.5439 26.0503C39.5344 26.0587 39.5231 26.0649 39.5108 26.0683L39.1215 26.1901C39.0603 26.1901 39.0269 26.1901 38.9996 26.14C38.9437 25.9243 38.8133 25.7353 38.6315 25.6064C38.4498 25.4775 38.2283 25.4169 38.0062 25.4353C37.8553 25.4147 37.7016 25.4292 37.5573 25.4779C37.4129 25.5265 37.2818 25.6078 37.174 25.7155C37.0663 25.8232 36.985 25.9544 36.9364 26.0988C36.8877 26.2431 36.8732 26.3968 36.8938 26.5477V28.0184C36.8732 28.1693 36.8877 28.323 36.9364 28.4673C36.985 28.6117 37.0663 28.7429 37.174 28.8506C37.2818 28.9583 37.4129 29.0396 37.5573 29.0883C37.7016 29.1369 37.8553 29.1515 38.0062 29.1308C38.6331 29.1308 39.0441 28.8422 39.0441 28.193V27.6368H38.1347C38.0847 27.6368 38.0568 27.6368 38.0568 27.5534V27.2452C38.0568 27.1896 38.0568 27.1618 38.1347 27.1618H39.5442C39.5558 27.1601 39.5676 27.161 39.5788 27.1645C39.59 27.168 39.6003 27.174 39.6088 27.182C39.6174 27.19 39.624 27.1999 39.6282 27.2108C39.6325 27.2218 39.6342 27.2335 39.6332 27.2452V28.2665C39.6351 28.4738 39.5932 28.6793 39.5101 28.8693C39.4271 29.0593 39.3047 29.2296 39.1512 29.369C38.9977 29.5085 38.8164 29.6138 38.6192 29.6782C38.4221 29.7426 38.2136 29.7646 38.0073 29.7427C37.7805 29.7693 37.5506 29.7449 37.3344 29.6712C37.1182 29.5975 36.9213 29.4764 36.7579 29.3167C36.5946 29.1571 36.469 28.9629 36.3904 28.7485C36.3118 28.534 36.2822 28.3047 36.3036 28.0773V26.5199C36.2823 26.2926 36.312 26.0633 36.3906 25.849C36.4693 25.6346 36.5948 25.4405 36.7582 25.2809C36.9215 25.1213 37.1184 25.0003 37.3346 24.9266C37.5507 24.8529 37.7806 24.8285 38.0073 24.8551C38.3507 24.8278 38.693 24.92 38.9761 25.1162C39.2592 25.3123 39.4658 25.6004 39.5609 25.9314M42.5573 28.5841V28.0278C42.2948 28.0113 42.0315 28.0113 41.7691 28.0278C41.2807 28.0835 40.9865 28.2553 40.9865 28.6603C40.9802 28.7452 40.9935 28.8305 41.0253 28.9095C41.0572 28.9885 41.1068 29.0591 41.1702 29.1159C41.2337 29.1727 41.3094 29.2142 41.3914 29.2371C41.4734 29.2601 41.5596 29.2639 41.6434 29.2482C41.8456 29.2461 42.0422 29.1812 42.206 29.0625C42.3698 28.9438 42.4927 28.7772 42.5578 28.5857M43.114 27.1651V29.5903C43.114 29.6403 43.114 29.6626 43.0306 29.6626H42.6412C42.5856 29.6626 42.5578 29.6626 42.5578 29.5903V29.1297C42.4511 29.3102 42.2993 29.4598 42.1174 29.564C41.9354 29.6681 41.7295 29.7232 41.5199 29.7238C41.3765 29.7384 41.2317 29.7223 41.0951 29.6764C40.9585 29.6304 40.8333 29.5558 40.7279 29.4575C40.6226 29.3592 40.5394 29.2395 40.4842 29.1064C40.4289 28.9733 40.4027 28.8299 40.4074 28.6859C40.4074 28.0367 40.8458 27.6813 41.7007 27.6151C41.9796 27.5958 42.2595 27.5958 42.5383 27.6151V27.2063C42.5383 26.7402 42.2663 26.5461 41.828 26.5461C41.6721 26.5202 41.512 26.5537 41.3795 26.64C41.247 26.7263 41.1516 26.8591 41.1122 27.0122C41.1122 27.0734 41.0677 27.0789 41.0009 27.0678L40.6238 26.9621C40.5626 26.9621 40.546 26.9176 40.5626 26.8676C40.6789 26.3792 41.1189 26.0627 41.842 26.0627C42.565 26.0627 43.1074 26.4181 43.1074 27.1752M45.6599 26.0544C45.8523 26.0503 46.0406 26.111 46.1945 26.2267C46.3484 26.3424 46.459 26.5063 46.5087 26.6924C46.6115 26.5063 46.7605 26.3499 46.9413 26.2381C47.1221 26.1264 47.3286 26.0631 47.541 26.0544C47.6765 26.0555 47.8102 26.0853 47.9333 26.1418C48.0564 26.1983 48.1662 26.2803 48.2553 26.3823C48.3445 26.4843 48.4111 26.604 48.4506 26.7335C48.4902 26.8631 48.5019 26.9996 48.4849 27.134V29.5814C48.4849 29.637 48.4516 29.6592 48.3959 29.6592H48.0133C47.9521 29.6592 47.9243 29.6592 47.9243 29.5814V27.2452C47.9243 26.8125 47.7301 26.5778 47.368 26.5778C47.1872 26.5985 47.0168 26.6733 46.8792 26.7924C46.7416 26.9114 46.6431 27.0693 46.5966 27.2452V29.5925C46.5966 29.6481 46.5965 29.6704 46.5187 29.6704H46.0932C46.032 29.6704 46.0153 29.6704 46.0153 29.5925V27.2452C46.0153 26.8125 45.8267 26.5778 45.4591 26.5778C45.2801 26.6036 45.1123 26.6802 44.9756 26.7985C44.8389 26.9168 44.7389 27.0719 44.6876 27.2452V29.5647C44.6876 29.6203 44.6876 29.6426 44.6097 29.6426H44.1881C44.1269 29.6426 44.1102 29.6426 44.1102 29.5647V26.1906C44.1102 26.1461 44.1102 26.1183 44.1881 26.1183H44.5986C44.6598 26.1183 44.6765 26.1461 44.6765 26.1906V26.6568C44.7766 26.4807 44.9198 26.3329 45.0925 26.2272C45.2653 26.1215 45.462 26.0613 45.6643 26.0521M50.0702 27.4894V28.311C50.0621 28.4294 50.0793 28.5482 50.1206 28.6595C50.162 28.7708 50.2265 28.872 50.3099 28.9565C50.3933 29.0409 50.4937 29.1067 50.6045 29.1494C50.7152 29.1921 50.8338 29.2108 50.9523 29.2043C51.463 29.2043 51.7683 28.9045 51.7683 28.311V27.4839C51.7683 26.8954 51.463 26.5794 50.9523 26.5794C50.8341 26.5768 50.7167 26.5989 50.6075 26.6443C50.4984 26.6897 50.3999 26.7574 50.3184 26.8431C50.2369 26.9287 50.1742 27.0305 50.1344 27.1418C50.0945 27.2531 50.0783 27.3715 50.0869 27.4894M50.0869 24.8368V26.6072C50.1956 26.4301 50.3496 26.2851 50.533 26.1873C50.7164 26.0896 50.9226 26.0425 51.1303 26.051C51.3025 26.0483 51.4732 26.0824 51.6312 26.1509C51.7891 26.2195 51.9306 26.321 52.0462 26.4486C52.1618 26.5763 52.2488 26.7271 52.3014 26.891C52.354 27.055 52.371 27.2283 52.3512 27.3993V28.3816C52.3704 28.5541 52.3522 28.7287 52.2979 28.8936C52.2436 29.0585 52.1545 29.2098 52.0366 29.3371C51.9187 29.4645 51.7747 29.565 51.6145 29.6318C51.4543 29.6986 51.2816 29.7302 51.1081 29.7243C50.9022 29.7308 50.6983 29.6828 50.517 29.5852C50.3358 29.4875 50.1835 29.3436 50.0757 29.1681V29.5786C50.0757 29.6287 50.0368 29.6453 49.9979 29.6453H49.5874C49.5373 29.6453 49.5095 29.6453 49.5095 29.5786V24.8368C49.5086 24.8271 49.5099 24.8173 49.5133 24.8081C49.5166 24.799 49.5219 24.7907 49.5288 24.7838C49.5357 24.7769 49.544 24.7716 49.5532 24.7683C49.5623 24.7649 49.5721 24.7636 49.5818 24.7645H50.0201C50.0702 24.7645 50.0869 24.7645 50.0869 24.8368ZM53.838 24.8368V29.5814C53.838 29.637 53.838 29.6592 53.7602 29.6592H53.3385C53.2718 29.6592 53.2551 29.6592 53.2551 29.5814V24.8368C53.2551 24.7867 53.2551 24.7589 53.3385 24.7589H53.7602C53.7708 24.7569 53.7818 24.7576 53.7922 24.7608C53.8025 24.764 53.8119 24.7697 53.8196 24.7773C53.8273 24.785 53.833 24.7944 53.8362 24.8048C53.8394 24.8151 53.84 24.8261 53.838 24.8368ZM55.3932 26.194V29.5869C55.3932 29.637 55.3932 29.6592 55.3209 29.6592H54.8993C54.8326 29.6592 54.8159 29.6592 54.8159 29.5869V26.194C54.8159 26.1439 54.8159 26.1217 54.8993 26.1217H55.3209C55.3765 26.1217 55.3932 26.1217 55.3932 26.194ZM55.3932 24.859V25.4803C55.3932 25.5415 55.3932 25.5749 55.2987 25.5749H54.9093C54.8965 25.5768 54.8834 25.5756 54.871 25.5715C54.8587 25.5674 54.8475 25.5605 54.8383 25.5513C54.8291 25.5421 54.8222 25.5309 54.8181 25.5186C54.814 25.5063 54.8129 25.4932 54.8148 25.4803V24.859C54.8129 24.8462 54.814 24.8331 54.8181 24.8208C54.8222 24.8084 54.8291 24.7972 54.8383 24.7881C54.8475 24.7789 54.8587 24.772 54.871 24.7679C54.8834 24.7638 54.8965 24.7626 54.9093 24.7645H55.2987C55.371 24.7645 55.3932 24.7979 55.3932 24.859ZM56.9746 27.273V29.5869C56.9746 29.637 56.9746 29.6592 56.9023 29.6592H56.5029C56.4361 29.6592 56.4195 29.6592 56.4195 29.5869V26.1906C56.4195 26.1461 56.4195 26.1183 56.4973 26.1183H56.9078C56.969 26.1183 56.9857 26.1461 56.9857 26.1906V26.6568C57.1075 26.4726 57.2726 26.3212 57.4665 26.2157C57.6605 26.1103 57.8774 26.0541 58.0981 26.0521C58.2469 26.0482 58.3948 26.0767 58.5314 26.1359C58.668 26.1951 58.79 26.2834 58.8889 26.3947C58.9878 26.5059 59.0611 26.6375 59.1038 26.7801C59.1465 26.9227 59.1575 27.0729 59.1361 27.2202V29.5869C59.1361 29.637 59.1361 29.6592 59.0526 29.6592H58.631C58.5754 29.6592 58.5476 29.6592 58.5476 29.5869V27.312C58.5476 26.857 58.3423 26.5889 57.8985 26.5889C57.6987 26.6014 57.5071 26.6729 57.3481 26.7944C57.1891 26.9159 57.0697 27.0819 57.0052 27.2714M60.501 27.327C60.492 27.4323 60.5065 27.5383 60.5436 27.6372C60.5807 27.7362 60.6394 27.8256 60.7155 27.899C60.7915 27.9724 60.883 28.0279 60.9832 28.0614C61.0834 28.095 61.1899 28.1057 61.2948 28.0929C61.3968 28.1063 61.5006 28.0962 61.5981 28.0635C61.6957 28.0307 61.7845 27.9761 61.8578 27.9039C61.9311 27.8317 61.987 27.7437 62.0212 27.6466C62.0554 27.5495 62.067 27.4459 62.0551 27.3437C62.0627 27.2371 62.0482 27.13 62.0126 27.0292C61.977 26.9284 61.921 26.8361 61.8481 26.7578C61.7752 26.6796 61.6871 26.6173 61.589 26.5746C61.491 26.532 61.3853 26.5099 61.2784 26.5099C61.1715 26.5099 61.0657 26.532 60.9677 26.5746C60.8697 26.6173 60.7815 26.6796 60.7086 26.7578C60.6357 26.8361 60.5797 26.9284 60.5441 27.0292C60.5085 27.13 60.494 27.2371 60.5016 27.3437M62.3605 30.0074C62.3605 29.7521 62.2164 29.5135 61.693 29.5135H61.0439C60.5555 29.5135 60.4059 29.7633 60.4059 30.0186C60.4059 30.3734 60.684 30.6071 61.366 30.6071C62.0479 30.6071 62.3594 30.3629 62.3594 30.008M62.9156 29.9691C62.9156 30.5253 62.4829 31.0292 61.3343 31.0292C60.2741 31.0292 59.858 30.6299 59.858 30.0747C59.8604 29.9053 59.9152 29.7407 60.0148 29.6036C60.1143 29.4665 60.2539 29.3635 60.4143 29.3088C60.3413 29.2577 60.2809 29.1907 60.2377 29.1129C60.1944 29.035 60.1694 28.9483 60.1645 28.8594C60.1685 28.7497 60.2048 28.6436 60.269 28.5546C60.3331 28.4655 60.4222 28.3974 60.525 28.3588C60.3488 28.2573 60.2038 28.1095 60.1057 27.9314C60.0077 27.7534 59.9603 27.5518 59.9687 27.3487C59.9603 27.1777 59.9896 27.0069 60.0545 26.8484C60.1194 26.69 60.2184 26.5477 60.3443 26.4318C60.4703 26.3158 60.6203 26.229 60.7836 26.1774C60.9468 26.1258 61.1195 26.1108 61.2892 26.1333H62.8355C62.88 26.1333 62.9022 26.1612 62.9022 26.2112V26.5277C62.9022 26.5889 62.8689 26.6111 62.8244 26.6111H62.2086C62.3282 26.7096 62.423 26.8347 62.4856 26.9764C62.5482 27.1181 62.5768 27.2724 62.5691 27.4271C62.5691 28.0818 62.1308 28.5396 61.2898 28.5396H61C60.7558 28.5396 60.6501 28.6508 60.6501 28.7838C60.6501 28.9167 60.7613 29.0279 61 29.0279H61.7603C62.5947 29.0279 62.92 29.444 62.92 29.9602M68.2142 25.8536C68.2198 25.8644 68.2226 25.8764 68.2224 25.8886C68.2221 25.9008 68.2187 25.9127 68.2126 25.9232C68.2065 25.9338 68.1979 25.9426 68.1875 25.9489C68.177 25.9552 68.1652 25.9588 68.153 25.9592L67.7926 26.0977C67.7813 26.1021 67.7692 26.1041 67.7571 26.1037C67.745 26.1032 67.7331 26.1003 67.7222 26.0951C67.7112 26.0899 67.7015 26.0825 67.6935 26.0734C67.6855 26.0643 67.6795 26.0537 67.6758 26.0421C67.6143 25.8513 67.4908 25.6865 67.3249 25.5739C67.159 25.4613 66.9603 25.4074 66.7602 25.4208C66.204 25.4208 65.8892 25.6817 65.8892 26.1089C65.8892 26.5361 66.1222 26.6651 67.0016 27.0189C67.881 27.3726 68.2559 27.7514 68.2559 28.4094C68.251 28.5993 68.2066 28.7861 68.1254 28.9579C68.0442 29.1296 67.9281 29.2825 67.7844 29.4068C67.6408 29.5311 67.4728 29.624 67.2911 29.6797C67.1095 29.7353 66.9182 29.7524 66.7296 29.7299C66.3849 29.765 66.039 29.6759 65.7541 29.4786C65.4693 29.2813 65.2643 28.9887 65.1761 28.6536C65.1761 28.5868 65.1761 28.559 65.2317 28.5373L65.6088 28.4155C65.6811 28.4155 65.709 28.4155 65.7256 28.4823C65.7795 28.701 65.9112 28.8926 66.0961 29.0213C66.2809 29.15 66.5064 29.2069 66.7302 29.1815C67.2864 29.1815 67.6457 28.9033 67.6457 28.4545C67.6457 28.0056 67.4349 27.8426 66.6301 27.5334C65.6645 27.1507 65.2985 26.773 65.2985 26.1183C65.3055 25.9371 65.35 25.7593 65.4294 25.5961C65.5087 25.433 65.6211 25.2882 65.7594 25.1708C65.8976 25.0534 66.0588 24.966 66.2326 24.9141C66.4064 24.8623 66.5891 24.8471 66.7691 24.8696C67.087 24.8476 67.4032 24.9322 67.6676 25.1101C67.9319 25.2881 68.1294 25.5491 68.2286 25.8519M69.1108 28.5657V26.194C69.1108 26.1439 69.1386 26.1161 69.1943 26.1161H69.6159C69.6715 26.1161 69.6993 26.1439 69.6993 26.194V28.4634C69.6993 28.9239 69.9045 29.1904 70.3429 29.1904C70.5436 29.1787 70.7362 29.1068 70.8956 28.984C71.0549 28.8613 71.1736 28.6934 71.2361 28.5023V26.194C71.2361 26.1439 71.2361 26.1161 71.3196 26.1161H71.7356C71.8024 26.1161 71.8191 26.1439 71.8191 26.194V29.5814C71.8191 29.6314 71.8191 29.6592 71.7412 29.6592H71.3307C71.32 29.6612 71.3091 29.6606 71.2987 29.6574C71.2883 29.6542 71.2789 29.6485 71.2713 29.6408C71.2636 29.6332 71.2579 29.6237 71.2547 29.6134C71.2515 29.603 71.2508 29.592 71.2528 29.5814V29.1208C71.1328 29.3071 70.9682 29.4606 70.774 29.5675C70.5798 29.6743 70.362 29.7311 70.1404 29.7327C69.9919 29.7357 69.8444 29.7065 69.7083 29.647C69.5722 29.5875 69.4506 29.4992 69.3519 29.3881C69.2532 29.2771 69.1798 29.1459 69.1368 29.0037C69.0937 28.8616 69.082 28.7117 69.1025 28.5646M75.0724 28.3076V27.4616C75.0905 27.347 75.0825 27.2298 75.0491 27.1186C75.0156 27.0075 74.9575 26.9054 74.879 26.8199C74.8006 26.7343 74.7039 26.6676 74.5961 26.6246C74.4883 26.5816 74.3722 26.5635 74.2564 26.5717C74.1397 26.5683 74.0236 26.5894 73.9155 26.6335C73.8075 26.6777 73.7098 26.7439 73.6288 26.828C73.5479 26.9121 73.4854 27.0123 73.4454 27.1219C73.4054 27.2316 73.3887 27.3485 73.3965 27.4649V28.2993C73.3879 28.417 73.4041 28.5351 73.444 28.6461C73.4839 28.7572 73.5467 28.8586 73.6283 28.9438C73.7098 29.0291 73.8084 29.0962 73.9176 29.141C74.0267 29.1858 74.1441 29.2071 74.262 29.2037C74.7726 29.2037 75.078 28.8928 75.078 28.3048M72.8915 30.9519C72.8818 30.9528 72.872 30.9515 72.8628 30.9481C72.8537 30.9448 72.8453 30.9395 72.8385 30.9326C72.8316 30.9257 72.8263 30.9174 72.8229 30.9082C72.8196 30.8991 72.8183 30.8893 72.8192 30.8796V26.1906C72.8192 26.1406 72.847 26.1183 72.897 26.1183H73.3075C73.3177 26.1166 73.3281 26.1172 73.3379 26.1201C73.3478 26.123 73.3568 26.1282 73.3644 26.1352C73.3719 26.1422 73.3777 26.1508 73.3814 26.1604C73.385 26.1701 73.3864 26.1804 73.3854 26.1906V26.59C73.495 26.4163 73.6477 26.2738 73.8285 26.1763C74.0094 26.0789 74.2123 26.0298 74.4177 26.0338C74.5905 26.0281 74.7625 26.0595 74.9221 26.1258C75.0817 26.1922 75.2252 26.2919 75.343 26.4184C75.4608 26.5449 75.5501 26.6952 75.605 26.8591C75.6598 27.023 75.6789 27.1968 75.6609 27.3687V28.3632C75.6797 28.5341 75.6621 28.707 75.6091 28.8706C75.5562 29.0341 75.4691 29.1846 75.3537 29.312C75.2383 29.4395 75.0972 29.541 74.9397 29.6098C74.7822 29.6787 74.6119 29.7134 74.44 29.7115C74.2328 29.7217 74.0267 29.6753 73.8439 29.5774C73.6611 29.4794 73.5083 29.3335 73.4021 29.1553V30.8535C73.4029 30.8632 73.4016 30.8729 73.3983 30.8821C73.395 30.8913 73.3897 30.8996 73.3828 30.9065C73.3759 30.9134 73.3676 30.9187 73.3584 30.922C73.3493 30.9253 73.3395 30.9266 73.3298 30.9258L72.8915 30.9519ZM78.833 28.3076V27.4616C78.8512 27.347 78.8432 27.2298 78.8097 27.1186C78.7762 27.0075 78.7181 26.9054 78.6397 26.8199C78.5612 26.7343 78.4645 26.6676 78.3567 26.6246C78.2489 26.5816 78.1328 26.5635 78.0171 26.5717C77.9004 26.5683 77.7842 26.5894 77.6762 26.6335C77.5681 26.6777 77.4704 26.7439 77.3895 26.828C77.3085 26.9121 77.246 27.0123 77.206 27.1219C77.166 27.2316 77.1493 27.3485 77.1571 27.4649V28.2993C77.1486 28.4165 77.1646 28.5342 77.2042 28.6448C77.2438 28.7554 77.3061 28.8566 77.387 28.9417C77.468 29.0269 77.5659 29.0942 77.6744 29.1393C77.7829 29.1844 77.8996 29.2063 78.0171 29.2037C78.5277 29.2037 78.833 28.8928 78.833 28.3048M76.6465 30.9519C76.6368 30.9528 76.6271 30.9515 76.6179 30.9481C76.6087 30.9448 76.6004 30.9395 76.5935 30.9326C76.5866 30.9257 76.5813 30.9174 76.578 30.9082C76.5747 30.8991 76.5734 30.8893 76.5742 30.8796V26.1906C76.5742 26.1406 76.602 26.1183 76.6521 26.1183H77.0626C77.0727 26.1166 77.0831 26.1172 77.093 26.1201C77.1029 26.123 77.1119 26.1282 77.1195 26.1352C77.127 26.1422 77.1328 26.1508 77.1365 26.1604C77.1401 26.1701 77.1415 26.1804 77.1405 26.1906V26.59C77.2501 26.4163 77.4027 26.2738 77.5836 26.1763C77.7644 26.0789 77.9674 26.0298 78.1728 26.0338C78.346 26.0273 78.5186 26.058 78.6789 26.124C78.8392 26.19 78.9834 26.2897 79.1018 26.4163C79.2202 26.5429 79.3101 26.6934 79.3652 26.8577C79.4204 27.0221 79.4396 27.1963 79.4215 27.3687V28.3632C79.4404 28.5344 79.4227 28.7075 79.3695 28.8713C79.3164 29.035 79.2291 29.1856 79.1134 29.3131C78.9978 29.4405 78.8563 29.542 78.6985 29.6107C78.5406 29.6794 78.37 29.7137 78.1978 29.7115C77.9908 29.7205 77.7852 29.6736 77.6026 29.5757C77.42 29.4779 77.2671 29.3327 77.1599 29.1553V30.8535C77.1608 30.8632 77.1595 30.8729 77.1562 30.8821C77.1528 30.8913 77.1475 30.8996 77.1406 30.9065C77.1337 30.9134 77.1254 30.9187 77.1163 30.922C77.1071 30.9253 77.0973 30.9266 77.0876 30.9258L76.6465 30.9519ZM80.8304 27.456V28.3549C80.8304 28.5801 80.9199 28.7961 81.0791 28.9553C81.2384 29.1145 81.4543 29.204 81.6795 29.204C81.9047 29.204 82.1207 29.1145 82.2799 28.9553C82.4391 28.7961 82.5286 28.5801 82.5286 28.3549V27.456C82.5286 27.2309 82.4391 27.0149 82.2799 26.8557C82.1207 26.6964 81.9047 26.607 81.6795 26.607C81.4543 26.607 81.2384 26.6964 81.0791 26.8557C80.9199 27.0149 80.8304 27.2309 80.8304 27.456ZM83.111 27.4282V28.3549C83.111 28.7346 82.9601 29.0988 82.6916 29.3673C82.4231 29.6358 82.059 29.7866 81.6792 29.7866C81.2995 29.7866 80.9354 29.6358 80.6669 29.3673C80.3984 29.0988 80.2475 28.7346 80.2475 28.3549V27.4449C80.2475 27.0652 80.3984 26.701 80.6669 26.4325C80.9354 26.164 81.2995 26.0132 81.6792 26.0132C82.059 26.0132 82.4231 26.164 82.6916 26.4325C82.9601 26.701 83.111 27.0652 83.111 27.4449M85.7692 26.1356V26.5277C85.7692 26.5889 85.7692 26.6111 85.6802 26.6111H85.6079C85.3859 26.6036 85.1675 26.6682 84.9854 26.7952C84.8033 26.9223 84.6673 27.105 84.5977 27.3159V29.5703C84.5977 29.6203 84.5644 29.637 84.5254 29.637H84.0871C84.0782 29.6379 84.0691 29.6367 84.0606 29.6337C84.0521 29.6306 84.0444 29.6257 84.038 29.6194C84.0317 29.613 84.0268 29.6053 84.0237 29.5968C84.0207 29.5883 84.0195 29.5792 84.0204 29.5703V26.1906C84.0204 26.135 84.0204 26.1183 84.0983 26.1183H84.4976C84.5532 26.1183 84.5811 26.1461 84.5811 26.1962V26.7524C84.6828 26.5466 84.8421 26.3747 85.0395 26.2575C85.2369 26.1404 85.4641 26.0829 85.6935 26.0922C85.7769 26.0922 85.7992 26.0922 85.7992 26.1756M87.464 25.2857V26.1345H88.2188C88.2744 26.1345 88.2966 26.1623 88.2966 26.2235V26.5399C88.2966 26.6011 88.2966 26.6234 88.2188 26.6234H87.464V28.6708C87.464 28.9873 87.6358 29.1314 87.9579 29.1314H88.2132C88.2688 29.1314 88.2966 29.1314 88.2966 29.2093V29.5697C88.2966 29.6309 88.2966 29.6531 88.2132 29.6531H87.8745C87.7484 29.6715 87.6198 29.6615 87.498 29.6241C87.3762 29.5866 87.2642 29.5226 87.1702 29.4366C87.0762 29.3505 87.0025 29.2447 86.9544 29.1267C86.9063 29.0087 86.8851 28.8815 86.8922 28.7543V26.6289H86.4094C86.3649 26.6289 86.3371 26.6289 86.3371 26.5455V26.229C86.3371 26.1678 86.3649 26.14 86.4094 26.14H86.8977V25.2862C86.8977 25.2417 86.8977 25.2139 86.9812 25.2139H87.3805C87.4473 25.2139 87.464 25.2134 87.464 25.2857ZM93.8233 25.8908C93.8233 25.9576 93.8233 26.0076 93.7287 26.0349L93.1074 26.2624C93.092 26.2705 93.0749 26.275 93.0575 26.2757C93.04 26.2763 93.0227 26.2731 93.0067 26.2661C92.9907 26.2592 92.9764 26.2488 92.965 26.2356C92.9535 26.2225 92.9452 26.2069 92.9405 26.1901C92.8884 26.0492 92.7908 25.9296 92.6632 25.8503C92.5356 25.7709 92.3853 25.7363 92.2358 25.7518C91.8531 25.7518 91.6034 25.9348 91.6034 26.2123C91.6034 26.4899 91.7975 26.6061 92.6602 26.9059C93.5229 27.2057 93.87 27.6162 93.87 28.2965C93.87 29.1125 93.1708 29.7338 92.1607 29.7338C91.7876 29.779 91.4106 29.6884 91.0988 29.4785C90.787 29.2686 90.5611 28.9535 90.4626 28.5907C90.4575 28.5766 90.4553 28.5615 90.4562 28.5464C90.4571 28.5314 90.4611 28.5167 90.4678 28.5032C90.4746 28.4897 90.484 28.4778 90.4956 28.4681C90.5071 28.4583 90.5205 28.4511 90.5349 28.4467L91.2062 28.2242C91.2952 28.1964 91.3392 28.2242 91.3614 28.3132C91.3981 28.4895 91.5006 28.6452 91.6481 28.7486C91.7956 28.8519 91.9769 28.8951 92.1552 28.8694C92.6101 28.8694 92.8488 28.6753 92.8488 28.3866C92.8488 28.0979 92.6769 27.9973 91.9777 27.7542C90.9732 27.3937 90.5905 26.9938 90.5905 26.2524C90.6051 26.0551 90.6591 25.8627 90.7493 25.6865C90.8394 25.5104 90.9639 25.3541 91.1155 25.2269C91.267 25.0997 91.4425 25.0041 91.6316 24.9458C91.8206 24.8875 92.0195 24.8676 92.2163 24.8874C92.5609 24.8531 92.907 24.9357 93.1988 25.122C93.4907 25.3082 93.7115 25.5873 93.8255 25.9142M95.8235 25.3368V26.1361H96.4909C96.5052 26.1343 96.5198 26.1358 96.5334 26.1405C96.5471 26.1451 96.5595 26.1529 96.5697 26.1631C96.5799 26.1733 96.5876 26.1857 96.5923 26.1993C96.5969 26.213 96.5984 26.2275 96.5966 26.2418V26.8247C96.5975 26.8386 96.5954 26.8525 96.5903 26.8654C96.5852 26.8784 96.5774 26.8901 96.5673 26.8996C96.5572 26.9092 96.5451 26.9164 96.5319 26.9208C96.5187 26.9251 96.5047 26.9265 96.4909 26.9249H95.8235V28.5062C95.8235 28.7114 95.9347 28.8282 96.2006 28.8282H96.4893C96.556 28.8282 96.5949 28.8616 96.5949 28.9228V29.5814C96.5949 29.6481 96.556 29.6759 96.4893 29.6759H96.0421C95.2428 29.6759 94.8656 29.2543 94.8656 28.6325V26.9082H94.4551C94.4413 26.9098 94.4273 26.9084 94.4141 26.9041C94.4009 26.8997 94.3889 26.8925 94.3788 26.8829C94.3687 26.8734 94.3608 26.8617 94.3558 26.8488C94.3507 26.8358 94.3485 26.8219 94.3495 26.808V26.224C94.3477 26.2097 94.3491 26.1952 94.3538 26.1815C94.3585 26.1679 94.3662 26.1555 94.3764 26.1453C94.3866 26.1351 94.399 26.1273 94.4126 26.1227C94.4263 26.118 94.4408 26.1165 94.4551 26.1183H94.8823V25.3363C94.8806 25.3232 94.8819 25.3099 94.886 25.2974C94.89 25.2849 94.8968 25.2734 94.9059 25.2638C94.9149 25.2542 94.926 25.2468 94.9383 25.242C94.9506 25.2372 94.9637 25.2352 94.9769 25.2362H95.7317C95.7929 25.2362 95.8207 25.2751 95.8207 25.3363M99.1614 28.455V28.1213C98.9761 28.1102 98.7904 28.1102 98.6051 28.1213C98.2447 28.1658 98.0489 28.2765 98.0489 28.554C98.0489 28.8316 98.2158 28.9434 98.4939 28.9434C98.6466 28.9455 98.7957 28.8971 98.9181 28.8058C99.0405 28.7145 99.1293 28.5853 99.1708 28.4383M100.12 27.2174V29.548C100.12 29.5609 100.117 29.5737 100.112 29.5855C100.107 29.5974 100.1 29.6081 100.09 29.6169C100.081 29.6258 100.07 29.6326 100.058 29.637C100.045 29.6414 100.033 29.6433 100.02 29.6426H99.3093C99.2964 29.6433 99.2835 29.6414 99.2714 29.637C99.2593 29.6326 99.2482 29.6258 99.2388 29.6169C99.2294 29.6081 99.222 29.5974 99.2169 29.5855C99.2118 29.5737 99.2092 29.5609 99.2092 29.548V29.1653C99.11 29.3372 98.9666 29.4795 98.7938 29.5773C98.6211 29.6751 98.4254 29.7249 98.2269 29.7215C98.0777 29.7336 97.9277 29.7132 97.7873 29.6615C97.6468 29.6099 97.5193 29.5284 97.4134 29.4226C97.3076 29.3167 97.2261 29.1892 97.1745 29.0487C97.1228 28.9083 97.1023 28.7583 97.1144 28.6091C97.1144 27.96 97.5249 27.5767 98.5184 27.4967C98.7324 27.4772 98.9478 27.4772 99.1619 27.4967V27.2452C99.1714 27.1791 99.1653 27.1117 99.144 27.0484C99.1227 26.9851 99.0869 26.9277 99.0394 26.8808C98.9919 26.8338 98.9341 26.7987 98.8705 26.7781C98.807 26.7576 98.7395 26.7522 98.6735 26.7624C98.5655 26.7478 98.4558 26.773 98.3649 26.8333C98.2741 26.8936 98.2082 26.9848 98.1796 27.0901C98.1462 27.1679 98.124 27.1846 98.0522 27.1624L97.3419 26.9849C97.2696 26.9849 97.2641 26.9237 97.2808 26.8737C97.3753 26.3631 97.837 25.9915 98.7069 25.9915C99.5769 25.9915 100.111 26.4131 100.111 27.2124M103.007 26.1361V26.8297C103.007 26.9132 102.974 26.941 102.891 26.941H102.786C102.583 26.9153 102.378 26.9642 102.208 27.0785C102.039 27.1928 101.917 27.3647 101.864 27.5623V29.548C101.866 29.5599 101.865 29.5719 101.862 29.5834C101.858 29.5948 101.852 29.6054 101.844 29.6143C101.836 29.6233 101.827 29.6305 101.816 29.6353C101.805 29.6402 101.793 29.6427 101.781 29.6426H100.971C100.959 29.6427 100.947 29.6402 100.936 29.6353C100.925 29.6305 100.915 29.6233 100.907 29.6143C100.899 29.6054 100.893 29.5948 100.89 29.5834C100.886 29.5719 100.886 29.5599 100.887 29.548V26.1628C100.886 26.1504 100.888 26.1379 100.893 26.1263C100.897 26.1147 100.904 26.1043 100.913 26.0957C100.922 26.0872 100.933 26.0808 100.945 26.077C100.957 26.0732 100.969 26.0721 100.982 26.0738H101.72C101.733 26.0729 101.746 26.0749 101.758 26.0797C101.771 26.0845 101.782 26.0919 101.791 26.1015C101.8 26.1111 101.807 26.1225 101.811 26.1351C101.815 26.1476 101.816 26.1609 101.814 26.174V26.6901C101.908 26.4964 102.056 26.3341 102.24 26.2229C102.425 26.1116 102.637 26.0562 102.852 26.0633C102.98 26.0633 103.007 26.0633 103.007 26.1745M104.905 25.3368V26.1361H105.573C105.587 26.1352 105.601 26.1374 105.613 26.1424C105.626 26.1475 105.638 26.1554 105.648 26.1654C105.657 26.1755 105.664 26.1876 105.669 26.2008C105.673 26.214 105.675 26.228 105.673 26.2418V26.8247C105.675 26.8383 105.673 26.8521 105.669 26.8651C105.665 26.8781 105.657 26.8899 105.648 26.8996C105.638 26.9093 105.626 26.9166 105.613 26.921C105.6 26.9254 105.586 26.9267 105.573 26.9249H104.905V28.5062C104.905 28.7114 105.017 28.8282 105.277 28.8282H105.571C105.584 28.8266 105.597 28.8278 105.61 28.8319C105.622 28.836 105.634 28.8428 105.644 28.8518C105.653 28.8609 105.661 28.8719 105.665 28.8842C105.67 28.8965 105.672 28.9097 105.671 28.9228V29.5814C105.671 29.6481 105.632 29.6759 105.571 29.6759H105.122C104.322 29.6759 103.951 29.2543 103.951 28.6325V26.9082H103.535C103.521 26.91 103.507 26.9087 103.494 26.9043C103.481 26.8999 103.47 26.8926 103.46 26.8829C103.45 26.8732 103.443 26.8614 103.438 26.8484C103.434 26.8354 103.433 26.8216 103.435 26.808V26.224C103.433 26.2102 103.434 26.1962 103.439 26.183C103.443 26.1698 103.45 26.1577 103.46 26.1476C103.469 26.1376 103.481 26.1297 103.494 26.1246C103.507 26.1196 103.521 26.1174 103.535 26.1183H103.962V25.3363C103.96 25.3227 103.961 25.3089 103.966 25.2959C103.97 25.2829 103.977 25.2711 103.987 25.2614C103.997 25.2517 104.009 25.2444 104.022 25.24C104.035 25.2356 104.048 25.2343 104.062 25.2362H104.817C104.83 25.2361 104.842 25.2387 104.854 25.2438C104.865 25.249 104.876 25.2565 104.884 25.266C104.892 25.2755 104.899 25.2867 104.903 25.2988C104.906 25.3109 104.907 25.3237 104.906 25.3363M109.123 26.8842C109.123 26.9399 109.123 26.9899 109.045 27.0116L108.452 27.2224C108.385 27.2224 108.352 27.2224 108.324 27.1501C108.279 27.0275 108.195 26.9233 108.084 26.854C107.973 26.7847 107.843 26.7543 107.713 26.7674C107.407 26.7674 107.23 26.8842 107.23 27.0617C107.23 27.2391 107.357 27.3059 108.04 27.4889C108.834 27.6997 109.153 28.0451 109.153 28.6013C109.153 29.2894 108.596 29.7138 107.71 29.7138C106.823 29.7138 106.356 29.3973 106.172 28.8538C106.172 28.776 106.172 28.7376 106.267 28.6987L106.789 28.4433C106.867 28.4044 106.91 28.4433 106.949 28.5212C107.007 28.6621 107.108 28.7808 107.239 28.8597C107.369 28.9386 107.521 28.9736 107.672 28.9595C108.033 28.9595 108.229 28.8427 108.229 28.6486C108.229 28.4545 108.029 28.3599 107.391 28.1825C106.608 27.9772 106.279 27.6263 106.279 27.07C106.279 26.3931 106.835 25.9576 107.666 25.9576C107.968 25.927 108.272 25.9954 108.532 26.1525C108.793 26.3096 108.995 26.5468 109.109 26.8286M115.103 25.0259V29.5536C115.103 29.6092 115.103 29.6481 115.002 29.6481H114.214C114.201 29.6489 114.188 29.647 114.176 29.6426C114.164 29.6382 114.153 29.6313 114.144 29.6225C114.134 29.6136 114.127 29.6029 114.122 29.5911C114.117 29.5792 114.114 29.5665 114.114 29.5536V27.7664H112.488V29.5647C112.489 29.5778 112.487 29.591 112.482 29.6033C112.478 29.6156 112.47 29.6266 112.461 29.6357C112.451 29.6447 112.44 29.6515 112.427 29.6556C112.414 29.6597 112.401 29.6609 112.388 29.6592H111.578C111.565 29.66 111.552 29.6581 111.54 29.6537C111.528 29.6493 111.517 29.6425 111.507 29.6336C111.498 29.6247 111.49 29.6141 111.485 29.6022C111.48 29.5904 111.478 29.5776 111.478 29.5647V25.0259C111.478 25.0125 111.48 24.9992 111.486 24.987C111.491 24.9747 111.499 24.9637 111.509 24.9548C111.519 24.9458 111.531 24.9391 111.544 24.9351C111.556 24.931 111.57 24.9298 111.583 24.9313H112.388C112.401 24.9297 112.414 24.9309 112.427 24.935C112.44 24.9391 112.451 24.9459 112.461 24.9549C112.47 24.964 112.478 24.975 112.482 24.9873C112.487 24.9996 112.489 25.0128 112.488 25.0259V26.8236H114.114V25.0259C114.114 25.013 114.117 25.0002 114.122 24.9884C114.127 24.9765 114.134 24.9659 114.144 24.957C114.153 24.9481 114.164 24.9413 114.176 24.9369C114.188 24.9325 114.201 24.9306 114.214 24.9313H115.019C115.091 24.9313 115.119 24.9703 115.119 25.0259M116.817 27.4177V27.5395H118.061V27.4177C118.067 27.3319 118.056 27.2457 118.028 27.1644C118 27.0831 117.955 27.0085 117.897 26.9453C117.839 26.8821 117.768 26.8317 117.689 26.7972C117.61 26.7627 117.525 26.7449 117.439 26.7449C117.353 26.7449 117.268 26.7627 117.189 26.7972C117.11 26.8317 117.039 26.8821 116.981 26.9453C116.923 27.0085 116.878 27.0831 116.85 27.1644C116.822 27.2457 116.811 27.3319 116.817 27.4177ZM116.817 28.1725V28.3076C116.803 28.3957 116.81 28.486 116.837 28.5708C116.865 28.6557 116.913 28.7326 116.976 28.7952C117.04 28.8578 117.118 28.9041 117.203 28.9303C117.288 28.9565 117.379 28.9617 117.466 28.9456C117.606 28.9671 117.749 28.9417 117.872 28.8735C117.996 28.8052 118.093 28.698 118.149 28.5685C118.21 28.4684 118.238 28.4572 118.338 28.5017L118.848 28.7626C118.954 28.8127 118.959 28.8627 118.915 28.9623C118.775 29.2198 118.563 29.4308 118.304 29.5691C118.046 29.7075 117.753 29.7672 117.461 29.741C117.258 29.7679 117.053 29.7502 116.858 29.689C116.663 29.6278 116.484 29.5246 116.333 29.3868C116.182 29.2489 116.063 29.0797 115.985 28.8911C115.907 28.7024 115.871 28.4989 115.88 28.2948V27.4616C115.87 27.2588 115.905 27.0562 115.982 26.8683C116.058 26.6803 116.176 26.5115 116.325 26.3737C116.474 26.2358 116.651 26.1323 116.845 26.0704C117.038 26.0085 117.243 25.9898 117.444 26.0154C117.64 25.9959 117.838 26.019 118.024 26.083C118.21 26.1471 118.38 26.2507 118.523 26.3867C118.665 26.5228 118.776 26.6879 118.849 26.871C118.921 27.054 118.953 27.2506 118.943 27.4471V28.0034C118.943 28.0979 118.909 28.1641 118.771 28.1641L116.817 28.1725ZM121.756 26.1361V26.8297C121.756 26.9132 121.728 26.941 121.639 26.941H121.539C121.336 26.9153 121.131 26.9642 120.962 27.0785C120.792 27.1928 120.67 27.3647 120.618 27.5623V29.548C120.619 29.5597 120.617 29.5714 120.613 29.5825C120.61 29.5936 120.604 29.6038 120.596 29.6126C120.588 29.6214 120.579 29.6286 120.568 29.6337C120.558 29.6388 120.546 29.6419 120.535 29.6426H119.719C119.707 29.6427 119.695 29.6402 119.684 29.6353C119.673 29.6305 119.663 29.6233 119.655 29.6143C119.647 29.6054 119.642 29.5948 119.638 29.5834C119.635 29.5719 119.634 29.5599 119.635 29.548V26.1628C119.634 26.1504 119.636 26.1379 119.641 26.1263C119.645 26.1147 119.652 26.1043 119.661 26.0957C119.67 26.0872 119.681 26.0808 119.693 26.077C119.705 26.0732 119.717 26.0721 119.73 26.0738H120.468C120.546 26.0738 120.562 26.1239 120.562 26.174V26.6901C120.656 26.4964 120.804 26.3341 120.988 26.2229C121.173 26.1116 121.385 26.0562 121.6 26.0633C121.733 26.0633 121.756 26.0633 121.756 26.1745M123.165 27.4177V27.5395H124.409V27.4177C124.416 27.3319 124.405 27.2457 124.377 27.1644C124.349 27.0831 124.304 27.0085 124.246 26.9453C124.187 26.8821 124.116 26.8317 124.038 26.7972C123.959 26.7627 123.874 26.7449 123.788 26.7449C123.702 26.7449 123.617 26.7627 123.538 26.7972C123.459 26.8317 123.388 26.8821 123.33 26.9453C123.271 27.0085 123.227 27.0831 123.198 27.1644C123.17 27.2457 123.158 27.3319 123.165 27.4177ZM123.166 28.1725V28.3076C123.152 28.3957 123.158 28.486 123.186 28.5708C123.214 28.6557 123.261 28.7326 123.325 28.7952C123.389 28.8578 123.466 28.9041 123.552 28.9303C123.637 28.9565 123.727 28.9617 123.815 28.9456C123.955 28.9674 124.099 28.9422 124.223 28.874C124.348 28.8058 124.446 28.6984 124.503 28.5685C124.559 28.4684 124.587 28.4572 124.686 28.5017L125.197 28.7626C125.303 28.8127 125.308 28.8627 125.264 28.9623C125.124 29.2198 124.911 29.4308 124.653 29.5691C124.395 29.7075 124.102 29.7672 123.81 29.741C123.608 29.7662 123.403 29.7471 123.21 29.6851C123.016 29.6231 122.839 29.5196 122.689 29.382C122.54 29.2443 122.422 29.0758 122.344 28.888C122.267 28.7003 122.231 28.4978 122.239 28.2948V27.4616C122.23 27.2588 122.264 27.0562 122.341 26.8683C122.418 26.6803 122.535 26.5115 122.685 26.3737C122.834 26.2358 123.011 26.1323 123.205 26.0704C123.398 26.0085 123.603 25.9898 123.804 26.0154C124 25.9959 124.198 26.019 124.384 26.083C124.57 26.1471 124.74 26.2507 124.883 26.3867C125.025 26.5228 125.136 26.6879 125.209 26.871C125.281 27.054 125.313 27.2506 125.303 27.4471V28.0034C125.303 28.0979 125.269 28.1641 125.131 28.1641L123.166 28.1725Z" fill="white"/>
</g>
</g>
</svg>
