<svg width="32" height="32" viewBox="0 0 32 32" fill="none" xmlns="http://www.w3.org/2000/svg">
<path d="M12.6824 2.44559C12.3731 2.61846 12.0833 2.82415 11.818 3.0591C11.574 3.26731 11.3633 3.51163 11.1933 3.78358C10.9381 4.20937 10.8278 4.7039 10.7213 5.18876L10.1395 7.83746C10.1395 7.83746 1.44691 8.9229 2.89279 11.8092C2.89279 11.8092 5.86796 16.6012 15.5741 15.3603C15.5741 15.3603 25.3477 13.135 27.3629 6.42767C27.3629 6.42767 27.1805 1.82646 21.1828 4.91682C21.1828 4.91682 20.496 1.9638 17.9092 2.00956C15.3225 2.05532 12.6824 2.44559 12.6824 2.44559Z" fill="#FFBA97"/>
<path d="M27.3749 6.30658C27.3749 6.30658 27.1924 1.70498 21.1947 4.79573C21.1947 4.79573 20.5079 1.84264 17.9212 1.88847C17.3506 1.89852 16.7774 1.9254 16.2305 1.96117C18.0797 5.27509 16.7404 7.47548 16.2377 8.08994C15.7252 8.71631 14.4057 8.60335 13.6034 8.70901C12.8011 8.81468 11.9828 8.68117 11.2086 8.44572C10.8758 8.34453 10.5411 8.22031 10.2742 7.99695C10.1778 7.91624 10.0789 7.81992 9.97546 7.74012C9.81066 7.76341 9.53802 7.80412 9.19294 7.86357C9.17578 7.89084 9.1594 7.91848 9.14423 7.94613C8.79159 8.58965 8.66564 9.37916 8.91383 10.0697C9.2545 11.0169 10.2322 11.6151 11.2222 11.7993C12.2121 11.9834 13.229 11.8284 14.2272 11.6977C15.2254 11.567 16.2578 11.4636 17.2245 11.7449C17.3475 11.7902 17.477 11.8157 17.608 11.8206C17.7506 11.8066 17.8887 11.7632 18.0138 11.6934C19.5818 10.9446 21.1805 9.91183 22.9034 10.141C23.4398 10.2124 24.0005 10.4553 24.3019 10.8834C25.6715 9.66741 26.8187 8.15778 27.3749 6.30658Z" fill="#C4694D"/>
<path d="M10.2744 7.99703C10.2744 7.99703 13.7624 10.3596 19.4096 6.88599C19.4096 6.88599 19.7479 8.70493 18.6028 9.58487C18.6028 9.58487 16.6625 11.2013 12.0636 10.6769C12.0636 10.6769 9.64905 10.6299 10.2744 7.99703Z" fill="#F7978D"/>
<path d="M18.6028 9.58487C19.7479 8.70493 19.4096 6.88599 19.4096 6.88599C18.1545 7.65795 17.0063 8.14122 15.9792 8.42666C15.6943 8.86448 14.8568 9.93923 13.0859 10.762C16.9517 10.9602 18.6028 9.58487 18.6028 9.58487Z" fill="#BF4C4C"/>
<path d="M27.3749 15.3561C25.722 13.4702 22.1794 13.114 22.1794 13.114C15.4249 16.5535 9.35826 15.1815 9.35826 15.1815L8.33906 16.7303C9.25099 16.5464 9.35826 17.7113 9.35826 17.7113L6.01221 22.6245C6.01221 22.6245 6.51256 24.6221 8.63473 27.5929C10.7569 30.5637 16.8946 30.8057 16.8946 30.8057L19.9904 31.0018C26.6825 30.4386 28.8715 25.2166 28.8715 25.2166C31.2481 18.837 29.0278 17.2421 27.3749 15.3561ZM22.8259 27.3342C18.4208 31.0631 11.3315 27.3342 11.3315 27.3342C7.19275 25.2648 9.50802 19.6508 9.50802 19.6508C11.2905 16.3111 15.7776 15.8206 15.7776 15.8206C22.6302 14.3836 24.6902 19.0036 24.6902 19.0036C24.6902 19.0036 27.231 23.6055 22.8259 27.3342Z" fill="#F7978D"/>
<path d="M7.95117 16.7417C7.95117 16.7417 9.20308 16.1124 9.35828 17.7113L6.01223 21.9545C5.37646 22.9136 4.87925 23.9578 4.5353 25.0559C4.5353 25.0559 3.57197 27.2575 2.31937 25.5608C2.31937 25.5608 1.66778 24.4989 2.98196 23.3538C4.29613 22.2087 6.85364 18.1058 6.85364 18.1058L7.95117 16.7417Z" fill="#D1E3ED"/>
<path d="M9.35829 17.7113C9.20309 16.1124 7.95118 16.7417 7.95118 16.7417L7.17877 17.7017C7.40654 18.1601 7.38472 18.7917 7.15144 19.2733C6.79509 20.0093 6.12213 20.5341 5.62773 21.1856C5.16417 21.7962 4.86165 22.5126 4.44373 23.1555C4.2107 23.5142 3.93096 23.8589 3.55413 24.0608C3.19227 24.2546 2.72456 24.2907 2.37953 24.074C1.91918 24.9079 2.31937 25.5607 2.31937 25.5607C3.57198 27.2567 4.53531 25.0559 4.53531 25.0559C4.87922 23.9576 5.37643 22.9133 6.01224 21.954L9.35829 17.7113Z" fill="#8DA8C6"/>
<path d="M25.9618 16.2426C25.5746 15.8647 25.2102 15.3621 25.3074 14.8298C25.3573 14.557 25.5186 14.3319 25.7197 14.1351C24.0596 13.3031 22.1794 13.114 22.1794 13.114C20.5738 13.9322 18.8713 14.5446 17.1124 14.9367L16.8584 15.087C16.4886 15.306 16.1125 15.5306 15.796 15.8173C22.634 14.3923 24.6905 19.0039 24.6905 19.0039C24.6905 19.0039 27.2313 23.6055 22.826 27.3344C22.7974 27.3586 22.7684 27.3813 22.7393 27.4048C23.7705 27.0107 24.8001 26.5913 25.6993 25.9545C27.1614 24.9097 28.1838 23.3595 28.5684 21.6041C28.7881 20.5808 28.768 19.4614 28.2552 18.549C27.7213 17.5991 26.7416 17.0037 25.9618 16.2426Z" fill="#BF4C4C"/>
<path d="M29.4016 23.6184C28.3845 25.6296 25.5123 29.7193 18.7629 30.4044C18.0104 30.4736 17.2642 30.5998 16.5308 30.782C16.7623 30.8002 16.8949 30.8055 16.8949 30.8055L19.9907 31.0015C26.6828 30.4383 28.8718 25.2164 28.8718 25.2164C29.0838 24.6464 29.2588 24.1155 29.4016 23.6184Z" fill="#BF4C4C"/>
<path d="M9.21775 18.4524L10.4427 18.3606C10.9886 17.7946 11.6206 17.3186 12.3152 16.9502L13.0858 15.9999L12.973 15.4456C10.7632 15.4991 9.35823 15.1816 9.35823 15.1816L8.35522 16.7057C8.3862 16.7074 8.41807 16.7103 8.45052 16.7148C9.25935 16.6444 9.35823 17.7112 9.35823 17.7112L9.2694 17.8417C9.27062 18.0464 9.25334 18.2508 9.21775 18.4524Z" fill="#BF4C4C"/>
<path d="M7.3468 25.5929C7.36483 25.3252 7.40404 25.0593 7.46405 24.7978C7.70334 23.7603 8.23646 22.8163 8.926 21.9985C9.02466 21.1954 9.22021 20.4072 9.5084 19.6511C9.70877 19.2768 9.94911 18.9253 10.2252 18.6028C10.0069 18.2455 9.6986 17.9518 9.33118 17.751L6.01221 22.6245C6.01221 22.6245 6.29713 23.7606 7.3468 25.5929Z" fill="#BF4C4C"/>
<path d="M28.4984 25.026C29.164 24.0453 29.8081 22.77 29.9105 21.4114C29.9105 21.4114 29.0362 22.7869 28.5537 21.8C28.5537 21.8 28.3441 22.9629 27.3546 24.2951C27.8246 24.2441 28.3623 24.3469 28.4984 25.026Z" fill="#FFD7D7"/>
<path d="M9.99043 26.3274C10.048 26.6407 10.0445 27.4375 8.52643 27.4388C8.56252 27.49 8.59798 27.5412 8.63523 27.593C9.34563 28.5877 10.5068 29.2762 11.7367 29.7523C11.5371 29.0383 11.4915 27.9632 13.0863 28.0767C12.4865 27.8666 11.9007 27.6186 11.3323 27.3343C10.8251 27.087 10.3697 26.7452 9.99043 26.3274Z" fill="#FFD7D7"/>
<path d="M11.818 3.05911C11.574 3.26732 11.3634 3.51164 11.1933 3.78359C10.9381 4.20938 10.8279 4.70391 10.7214 5.18877C10.6744 5.4021 10.6275 5.61544 10.5806 5.82877C10.9123 5.92383 11.2558 5.97192 11.6009 5.97162C13.411 5.97162 14.8785 4.68407 14.8785 3.09578C14.8783 2.79157 14.8237 2.48984 14.7173 2.20483C13.5216 2.32131 12.6821 2.44535 12.6821 2.44535C12.3729 2.61832 12.0832 2.82409 11.818 3.05911Z" fill="#FFF1C7"/>
<path d="M30.1102 20.0118C29.7168 15.9631 25.8234 13.0895 21.9479 12.8182C24.3517 11.2348 27.5938 8.88543 27.5261 5.69893C27.3177 4.02143 25.409 3.36773 23.926 3.58245C23.098 3.66636 22.3596 3.96569 21.6122 4.29215C21.5226 3.14873 21.7402 1.65746 20.6202 0.95775C18.791 -0.0575464 13.6704 1.57349 11.8686 2.55077C10.5269 3.47052 10.1233 6.09714 9.95226 7.63237C8.28973 8.03026 3.2921 8.627 2.64116 10.218C2.0576 13.1108 6.80288 14.8289 9.02804 15.2978C8.77025 15.7179 8.43527 16.08 8.12429 16.4588C7.98207 16.4799 7.8461 16.5315 7.72575 16.6102C7.6054 16.6888 7.50352 16.7926 7.42714 16.9144C6.88653 17.6326 6.46445 18.4463 5.95053 19.1837C4.82951 20.8781 3.51002 22.4187 2.20653 23.9698C1.75015 24.6297 1.69607 25.5169 2.34381 26.0796C2.63304 26.3226 3.00578 26.443 3.38253 26.4151C3.75928 26.3872 4.11021 26.2132 4.36045 25.9302C4.62324 25.6237 4.74951 25.2376 4.85076 24.8535C5.02624 24.1431 5.26708 23.445 5.62816 22.8065C5.58925 26.7889 9.18656 30.0015 12.9762 30.4634C19.5001 32.9559 28.8913 30.2635 29.8748 22.5034C30.1063 21.6945 30.1861 20.8497 30.1102 20.0118ZM29.519 18.9799C30.2819 21.7997 28.9021 24.8801 26.7554 26.7284C21.4888 31.4068 11.1374 32.2475 7.55904 25.1508C7.17314 24.2818 6.97937 23.3397 6.99098 22.3889C7.28295 21.7176 7.74234 21.1206 8.35168 20.7168C7.08013 28.5642 16.0985 30.8488 22.0205 28.437C30.2249 25.428 32.0384 16.2401 22.3936 13.8922C22.7872 13.6514 23.2431 13.5321 23.7041 13.5494C26.3808 14.3197 28.7676 16.2173 29.519 18.9799ZM5.8866 21.0326C5.8102 20.8539 5.7002 20.6914 5.56256 20.5541C5.70516 20.3566 5.84515 20.1572 5.98253 19.9559C6.28685 20.0084 6.60154 20.0733 6.84884 20.2685C6.55578 20.6086 6.2722 20.9581 6.00717 21.3204C5.97231 21.2224 5.93206 21.1263 5.8866 21.0326ZM7.44724 17.7114C7.93812 17.7517 8.34093 17.9208 8.65684 18.313C8.48762 18.5214 8.2962 18.7011 8.11456 18.8938C7.8306 18.6358 7.29184 18.5239 6.85376 18.5998C7.05594 18.3069 7.2528 18.0097 7.44724 17.7114ZM9.25671 24.594C8.22151 20.2159 12.126 16.1857 16.3784 15.9202C22.634 15.0838 27.7174 19.6481 23.8277 25.6797C21.7537 28.6203 17.6231 29.1773 14.3685 28.1763C12.7985 27.2415 12.1313 25.3824 13.538 23.9736C14.5058 22.9715 15.9333 22.492 17.2654 22.222C19.3783 21.9137 21.955 21.7184 22.048 18.9726C22.0361 18.7714 21.7327 18.6438 21.632 18.86C21.3592 19.4454 20.9935 19.9945 20.4499 20.3604C18.8106 21.3524 16.7744 20.9876 14.9832 21.5088C12.5479 21.9592 10.1681 24.365 11.0771 26.9556C10.2426 26.3736 9.60705 25.5492 9.25671 24.594ZM23.9289 26.5862C23.9249 26.581 23.9206 26.576 23.9161 26.5713C25.8738 24.177 26.3 20.4763 24.2994 17.9992C22.624 15.944 19.751 15.4153 17.237 15.4648C20.656 14.6881 25.2041 16.2938 25.9256 20.0741C26.3506 22.3947 25.5947 24.9186 23.9289 26.5862ZM25.7913 25.3062C27.7775 22.1755 27.0677 17.6808 23.8605 15.664C24.8172 16.08 25.874 16.5393 26.4618 17.4408C27.9604 19.7064 27.7832 22.6844 26.5345 25.0184C26.0617 25.5384 25.5359 26.0074 24.9655 26.418C25.2745 26.0737 25.5509 25.7015 25.791 25.3061L25.7913 25.3062ZM27.8278 22.5118C28.0809 21.1488 27.9454 19.7422 27.4368 18.4526C29.0432 20.066 28.5587 21.9373 27.5126 23.707C27.6478 23.3172 27.7531 22.9176 27.8276 22.5117L27.8278 22.5118ZM8.95149 17.7616C8.93861 17.8126 8.92214 17.8627 8.90221 17.9114C8.57588 17.5885 8.15122 17.3838 7.69543 17.3295C8.04532 16.5201 9.18484 16.8891 8.95149 17.7616ZM6.40288 19.3168C6.45498 19.2343 6.50612 19.151 6.55712 19.0672C6.98592 18.9702 7.43706 18.9652 7.82573 19.1946C7.584 19.4479 7.34695 19.7042 7.1138 19.966C6.84884 19.7757 6.54301 19.6501 6.2208 19.5992C6.28229 19.5055 6.34298 19.4113 6.40288 19.3166V19.3168ZM19.1547 7.42041C19.0546 8.62431 18.597 9.50597 17.4463 9.99186C15.4952 10.5697 13.3715 11.0251 11.4051 10.3132C10.4643 10.0463 10.3331 9.35321 10.3701 8.47916C12.9772 9.55897 16.7726 8.67065 19.164 7.34041C19.1608 7.36709 19.1581 7.39378 19.1547 7.42041ZM11.0165 4.70041C11.2712 3.8149 11.6535 3.02757 12.569 2.68076C12.5047 2.74928 12.457 2.83165 12.4295 2.92152C12.402 3.01139 12.3955 3.10637 12.4104 3.19916C12.6673 4.92626 17.0376 3.59122 18.1468 3.31026C19.0044 2.97317 19.1683 3.54937 19.1708 4.28453C19.257 5.12943 19.2715 5.9801 19.2142 6.82745C16.8726 8.2645 12.9891 9.13785 10.3791 8.06981C10.4284 6.92193 10.6431 5.78716 11.0165 4.7006V4.70041ZM3.04416 11.0913C2.85005 10.4913 3.12372 10.0018 3.67501 9.73913C5.61728 8.7742 7.83047 8.51941 9.92845 8.05317C9.72615 10.1135 10.5256 10.7965 12.4943 11.051C14.8986 11.3764 17.4031 10.6075 19.5952 9.66534C18.4496 11.3316 16.207 12.4237 14.1832 12.3391C13.9116 12.322 13.9133 12.7431 14.1832 12.7611C16.6868 12.9681 21.0056 10.4942 21.6002 7.96287C21.8166 6.90047 21.6367 5.803 21.6253 4.73017C22.9077 4.08223 24.4662 3.61241 25.8634 4.19487C29.0989 5.80031 25.4582 9.80767 23.6588 11.1211C18.8898 14.9771 12.0095 16.5554 6.28506 13.9755C5.02189 13.4064 3.41517 12.5441 3.04416 11.0913ZM9.46247 15.3837C9.85588 15.4575 10.2523 15.5126 10.6485 15.5551C10.1275 15.9775 9.65453 16.4354 9.31303 17.0247C9.24387 16.8932 9.14767 16.7779 9.03075 16.6862C8.91382 16.5946 8.77882 16.5287 8.63463 16.493C8.96 16.1694 9.22976 15.7534 9.46247 15.3837ZM4.29613 22.2089C4.61613 22.499 4.78893 22.9001 4.84512 23.3217C4.67906 23.7019 4.54648 24.096 4.4489 24.4993C4.29588 23.9515 4.0048 23.4497 3.56013 23.0947C3.80999 22.8031 4.05532 22.5079 4.29613 22.2089ZM2.4601 25.4872C1.98298 24.6753 2.83335 23.9522 3.3088 23.3841C3.92026 23.9003 4.136 24.6605 4.12576 25.433C3.744 26.0225 2.87226 26.1706 2.4601 25.4872ZM5.13184 22.7145C5.01216 22.3908 4.79565 22.0829 4.5353 21.9092C4.80316 21.5729 5.06475 21.2318 5.32007 20.8857C5.55047 21.1214 5.57543 21.4693 5.70804 21.7476C5.49835 22.0591 5.306 22.3818 5.13184 22.7145ZM28.1226 26.1085C26.5116 28.6813 23.6523 30.2504 20.7072 30.74C20.3336 30.706 19.9785 30.6608 19.641 30.5001C23.0563 29.8317 26.4501 28.1742 28.5535 25.3462C28.4224 25.6059 28.2798 25.8605 28.1226 26.1085Z" fill="#3A3245"/>
</svg>
